<?xml version="1.0" encoding="utf-8"?>
<!-- Generator: Adobe Illustrator 26.0.3, SVG Export Plug-In . SVG Version: 6.00 Build 0)  -->
<svg version="1.1" id="Layer_1" xmlns="http://www.w3.org/2000/svg" xmlns:xlink="http://www.w3.org/1999/xlink" x="0px" y="0px"
	 viewBox="0 0 300 70" style="enable-background:new 0 0 300 70;" xml:space="preserve">
<style type="text/css">
	.st0{fill:#FFFFFF;}
</style>
<g>
	<path class="st0" d="M38.5,9.99c0.24,0,0.48-0.08,0.68-0.24C39.82,9.23,40.4,8.6,40.9,7.9c0.34-0.48,0.23-1.14-0.25-1.49
		c-0.48-0.34-1.14-0.23-1.49,0.25c-0.39,0.55-0.84,1.03-1.34,1.44c-0.45,0.37-0.52,1.04-0.15,1.5C37.89,9.86,38.2,9.99,38.5,9.99z"
		/>
	<path class="st0" d="M38.5,13.5c0.17,0,0.34-0.04,0.5-0.13c2.32-1.24,4.22-3.24,5.37-5.63c0.25-0.53,0.03-1.17-0.5-1.42
		c-0.53-0.25-1.17-0.03-1.42,0.5C41.5,8.8,39.92,10.46,38,11.49c-0.52,0.28-0.71,0.92-0.44,1.44C37.76,13.29,38.12,13.5,38.5,13.5z"
		/>
	<path class="st0" d="M38.5,16.72c0.13,0,0.27-0.03,0.4-0.08c4.02-1.63,7.19-4.91,8.68-8.99c0.2-0.55-0.08-1.16-0.63-1.37
		c-0.55-0.2-1.16,0.08-1.37,0.63c-1.29,3.52-4.02,6.34-7.48,7.75c-0.55,0.22-0.81,0.84-0.59,1.39
		C37.68,16.47,38.08,16.72,38.5,16.72z"/>
	<path class="st0" d="M38.5,19.83c0.11,0,0.22-0.02,0.33-0.05c5.71-1.88,10.15-6.43,11.87-12.19c0.17-0.56-0.15-1.16-0.72-1.33
		c-0.56-0.17-1.16,0.15-1.33,0.72c-1.52,5.09-5.44,9.12-10.49,10.78c-0.56,0.18-0.86,0.79-0.68,1.34
		C37.64,19.55,38.06,19.83,38.5,19.83z"/>
	<path class="st0" d="M38.22,20.79c-0.57,0.16-0.9,0.74-0.74,1.31c0.13,0.47,0.56,0.78,1.03,0.78c0.09,0,0.19-0.01,0.28-0.04
		c7.35-2.03,13.08-7.9,14.95-15.3c0.14-0.57-0.2-1.15-0.77-1.29c-0.57-0.14-1.15,0.2-1.29,0.77C49.99,13.68,44.84,18.96,38.22,20.79
		z"/>
	<path class="st0" d="M38.26,23.82c-0.57,0.14-0.93,0.71-0.79,1.28c0.12,0.49,0.55,0.82,1.04,0.82c0.08,0,0.17-0.01,0.25-0.03
		c8.98-2.14,16.05-9.36,18.02-18.38c0.13-0.58-0.24-1.14-0.81-1.27c-0.58-0.13-1.14,0.24-1.27,0.81
		C52.89,15.28,46.45,21.86,38.26,23.82z"/>
	<path class="st0" d="M55.5,13.48c-3.39,6.79-9.82,11.78-17.22,13.33c-0.58,0.12-0.94,0.69-0.82,1.26c0.11,0.5,0.55,0.85,1.04,0.85
		c0.07,0,0.15-0.01,0.22-0.02c8.03-1.69,15.01-7.1,18.69-14.47c0.26-0.53,0.05-1.17-0.48-1.43C56.41,12.74,55.77,12.95,55.5,13.48z"
		/>
	<path class="st0" d="M38.5,31.9c0.07,0,0.13-0.01,0.2-0.02c7.47-1.41,14.08-5.56,18.61-11.7c0.35-0.47,0.25-1.14-0.22-1.49
		c-0.47-0.35-1.14-0.25-1.49,0.22c-4.21,5.71-10.35,9.57-17.29,10.87c-0.58,0.11-0.96,0.67-0.85,1.24C37.55,31.54,38,31.9,38.5,31.9
		z"/>
	<path class="st0" d="M38.32,32.76c-0.58,0.1-0.97,0.65-0.87,1.23c0.09,0.52,0.54,0.89,1.05,0.89c0.06,0,0.12,0,0.18-0.02
		c12.44-2.12,22.71-11.34,26.16-23.49c0.16-0.57-0.17-1.16-0.73-1.32c-0.57-0.16-1.16,0.17-1.32,0.73
		C59.56,22.15,49.96,30.78,38.32,32.76z"/>
	<path class="st0" d="M38.34,35.73c-0.58,0.09-0.98,0.64-0.89,1.22c0.08,0.53,0.54,0.9,1.05,0.9c0.05,0,0.11,0,0.16-0.01
		c15.46-2.4,27.8-14.9,30-30.4c0.08-0.58-0.32-1.12-0.91-1.2c-0.58-0.08-1.12,0.32-1.2,0.91C64.49,21.71,52.88,33.47,38.34,35.73z"
		/>
	<path class="st0" d="M38.35,38.68c-0.58,0.08-0.99,0.62-0.9,1.21c0.08,0.53,0.53,0.91,1.05,0.91c0.05,0,0.1,0,0.15-0.01
		c17.16-2.45,30.72-16.18,32.97-33.37c0.08-0.58-0.34-1.12-0.92-1.2c-0.59-0.07-1.12,0.33-1.2,0.92
		C67.38,23.39,54.57,36.36,38.35,38.68z"/>
	<path class="st0" d="M38.36,41.63c-0.58,0.08-0.99,0.61-0.92,1.2c0.07,0.54,0.53,0.93,1.05,0.93c0.05,0,0.09,0,0.14-0.01
		c18.86-2.5,33.64-17.44,35.93-36.33c0.07-0.58-0.35-1.11-0.93-1.19c-0.57-0.07-1.11,0.34-1.19,0.93
		C70.28,25.08,56.26,39.26,38.36,41.63z"/>
	<path class="st0" d="M38.37,44.58c-0.58,0.07-1,0.6-0.93,1.19c0.07,0.54,0.53,0.93,1.06,0.93c0.04,0,0.09,0,0.13-0.01
		C59.21,44.15,75.2,28,77.52,7.4c0.07-0.58-0.35-1.11-0.94-1.18C76,6.16,75.47,6.58,75.4,7.16C73.19,26.78,57.96,42.16,38.37,44.58z
		"/>
	<path class="st0" d="M38.38,47.53c-0.58,0.07-1,0.6-0.94,1.18c0.06,0.54,0.52,0.94,1.06,0.94c0.04,0,0.08,0,0.12-0.01
		c21.93-2.53,39.53-20.3,41.85-42.25c0.06-0.59-0.36-1.11-0.95-1.17c-0.59-0.06-1.11,0.36-1.17,0.95
		C76.14,28.14,59.33,45.11,38.38,47.53z"/>
	<path class="st0" d="M79.47,19.71c0.12,0.04,0.24,0.06,0.35,0.06c0.44,0,0.85-0.27,1.01-0.71c1.33-3.79,2.2-7.71,2.59-11.67
		c0.06-0.59-0.37-1.11-0.96-1.17c-0.6-0.06-1.11,0.37-1.17,0.96c-0.38,3.79-1.21,7.55-2.48,11.17
		C78.62,18.91,78.91,19.51,79.47,19.71z"/>
	<path class="st0" d="M69.71,34.03c-3.87,4.46-8.43,8.14-13.57,10.92c-0.03,0.02-0.05,0.04-0.08,0.06
		c-0.04,0.02-0.08,0.02-0.12,0.03c-5.47,2.93-11.38,4.76-17.56,5.43c-0.58,0.06-1.01,0.59-0.94,1.17c0.06,0.55,0.52,0.95,1.06,0.95
		c0.04,0,0.08,0,0.12-0.01c6.46-0.7,12.63-2.61,18.34-5.67c0.02-0.01,0.04-0.03,0.06-0.05c0.05-0.02,0.1-0.03,0.14-0.06
		c5.36-2.91,10.13-6.74,14.16-11.4c0.39-0.44,0.34-1.12-0.11-1.5C70.77,33.54,70.1,33.58,69.71,34.03z"/>
	<path class="st0" d="M73.02,37.94c0.39-0.44,0.35-1.11-0.09-1.5c-0.44-0.39-1.11-0.35-1.5,0.09c-3.91,4.38-8.5,8.04-13.62,10.85
		c-0.49,0.27-0.67,0.86-0.45,1.37c-0.28-0.47-0.88-0.67-1.38-0.42c-5.54,2.76-11.46,4.48-17.59,5.11c-0.59,0.06-1.01,0.58-0.95,1.17
		c0.06,0.55,0.52,0.96,1.06,0.96c0.04,0,0.07,0,0.11-0.01c6.38-0.65,12.55-2.44,18.32-5.32c0.5-0.25,0.71-0.84,0.5-1.35
		c0.2,0.31,0.54,0.49,0.89,0.49c0.17,0,0.35-0.04,0.51-0.13C64.17,46.3,68.94,42.5,73.02,37.94z"/>
	<path class="st0" d="M84.31,13.65c0.07,0.01,0.14,0.02,0.21,0.02c0.5,0,0.94-0.35,1.04-0.86c0.35-1.77,0.62-3.6,0.79-5.43
		c0.06-0.59-0.38-1.11-0.96-1.16c-0.59-0.06-1.11,0.38-1.16,0.96c-0.17,1.76-0.42,3.52-0.76,5.22
		C83.36,12.98,83.73,13.54,84.31,13.65z"/>
	<path class="st0" d="M74.71,40.44c0.4-0.43,0.37-1.11-0.07-1.51c-0.43-0.4-1.11-0.37-1.51,0.07c-3.95,4.31-8.55,7.94-13.67,10.79
		c-0.51,0.29-0.7,0.93-0.41,1.45c0.19,0.35,0.56,0.55,0.93,0.55c0.18,0,0.35-0.04,0.52-0.13C65.82,48.69,70.6,44.92,74.71,40.44z"/>
	<path class="st0" d="M88.08,8.91c0.04,0,0.07,0.01,0.11,0.01c0.54,0,1-0.41,1.06-0.96c0.01-0.12,0.02-0.23,0.03-0.35l0.02-0.23
		c0.05-0.59-0.38-1.1-0.97-1.16c-0.58-0.04-1.1,0.38-1.16,0.97l-0.04,0.56C87.06,8.33,87.49,8.85,88.08,8.91z"/>
	<path class="st0" d="M38.5,58.49c0.03,0,0.07,0,0.1-0.01c6.35-0.61,12.51-2.29,18.3-4.99c0.53-0.25,0.76-0.88,0.52-1.42
		c-0.25-0.53-0.88-0.76-1.42-0.52c-5.57,2.6-11.5,4.21-17.61,4.8c-0.59,0.06-1.01,0.58-0.96,1.16C37.5,58.07,37.96,58.49,38.5,58.49
		z"/>
	<path class="st0" d="M57.43,55.31c-0.24-0.54-0.86-0.79-1.4-0.55c-5.6,2.45-11.53,3.98-17.62,4.54c-0.59,0.05-1.02,0.57-0.96,1.16
		c0.05,0.55,0.52,0.97,1.06,0.97c0.03,0,0.07,0,0.1,0c6.33-0.58,12.48-2.16,18.28-4.71C57.42,56.47,57.67,55.85,57.43,55.31z"/>
	<path class="st0" d="M76.39,42.92c0.4-0.43,0.38-1.1-0.05-1.51c-0.43-0.4-1.1-0.38-1.51,0.05c-4.01,4.27-8.61,7.89-13.7,10.75
		c-0.51,0.29-0.69,0.94-0.41,1.45c0.2,0.35,0.56,0.54,0.93,0.54c0.18,0,0.36-0.04,0.52-0.14C67.45,51.1,72.23,47.35,76.39,42.92z"/>
	<path class="st0" d="M56.05,57.93c-4.21,1.74-8.62,2.99-13.13,3.73c-0.58,0.1-0.97,0.64-0.88,1.22c0.09,0.52,0.54,0.89,1.05,0.89
		c0.06,0,0.11,0,0.17-0.01c4.67-0.77,9.25-2.07,13.6-3.87c0.54-0.22,0.8-0.85,0.58-1.39C57.22,57.97,56.59,57.71,56.05,57.93z"/>
	<path class="st0" d="M78.07,45.4c0.41-0.43,0.39-1.1-0.03-1.51c-0.42-0.41-1.1-0.39-1.51,0.03c-4.04,4.22-8.66,7.82-13.73,10.71
		c-0.51,0.29-0.69,0.94-0.4,1.45c0.2,0.34,0.56,0.54,0.93,0.54c0.18,0,0.36-0.04,0.53-0.14C69.1,53.5,73.88,49.77,78.07,45.4z"/>
	<path class="st0" d="M56.07,61.07c-0.56,0.22-1.12,0.44-1.69,0.64c-0.55,0.2-0.84,0.81-0.64,1.36c0.16,0.44,0.57,0.71,1,0.71
		c0.12,0,0.24-0.02,0.36-0.06c0.59-0.21,1.17-0.44,1.75-0.66c0.55-0.21,0.82-0.83,0.6-1.38C57.23,61.13,56.62,60.86,56.07,61.07z"/>
	<path class="st0" d="M79.73,46.37c-0.42-0.41-1.09-0.4-1.51,0.02c-4.07,4.17-8.7,7.76-13.76,10.66c-0.51,0.29-0.69,0.94-0.39,1.45
		c0.2,0.34,0.56,0.53,0.93,0.53c0.18,0,0.36-0.05,0.53-0.14c5.23-3,10.02-6.71,14.23-11.02C80.16,47.46,80.15,46.78,79.73,46.37z"/>
	<path class="st0" d="M81.42,48.85c-0.42-0.41-1.09-0.41-1.51,0c-4.09,4.11-8.73,7.68-13.79,10.62c-0.51,0.29-0.68,0.95-0.39,1.46
		c0.2,0.34,0.56,0.53,0.92,0.53c0.18,0,0.36-0.05,0.53-0.14c5.23-3.03,10.02-6.71,14.24-10.96C81.84,49.94,81.84,49.26,81.42,48.85z
		"/>
	<path class="st0" d="M83.1,51.31c-0.41-0.42-1.09-0.42-1.51-0.01c-4.08,4.04-8.67,7.57-13.66,10.5c-0.51,0.3-0.68,0.95-0.38,1.46
		c0.2,0.34,0.55,0.53,0.92,0.53c0.18,0,0.37-0.05,0.54-0.15c5.14-3.02,9.87-6.66,14.08-10.82C83.51,52.4,83.52,51.73,83.1,51.31z"/>
	<path class="st0" d="M84.78,53.77c-0.41-0.42-1.09-0.43-1.51-0.02c-3.08,3.01-6.41,5.73-9.89,8.09c-0.49,0.33-0.61,0.99-0.28,1.48
		c0.21,0.3,0.54,0.47,0.88,0.47c0.21,0,0.41-0.06,0.6-0.18c3.58-2.43,7.01-5.23,10.18-8.33C85.18,54.86,85.19,54.19,84.78,53.77z"/>
	<path class="st0" d="M97.57,42.31c0.17,0.1,0.36,0.15,0.55,0.15c0.36,0,0.71-0.18,0.91-0.52c4.73-7.85,7.98-16.42,9.66-25.46
		c0.11-0.58-0.27-1.14-0.85-1.24c-0.58-0.11-1.14,0.27-1.24,0.85c-1.64,8.8-4.8,17.13-9.39,24.76
		C96.9,41.35,97.06,42.01,97.57,42.31z"/>
	<path class="st0" d="M86.46,56.22c-0.41-0.42-1.08-0.44-1.51-0.03c-2.12,2.04-4.35,3.95-6.61,5.68c-0.47,0.36-0.56,1.02-0.2,1.49
		c0.21,0.28,0.53,0.42,0.85,0.42c0.22,0,0.45-0.07,0.64-0.22c2.33-1.77,4.62-3.74,6.8-5.84C86.85,57.32,86.86,56.64,86.46,56.22z"/>
	<path class="st0" d="M93.97,53.4c0.31,0,0.61-0.13,0.82-0.39c10.71-13.03,16.93-28.82,17.97-45.66c0.04-0.59-0.41-1.09-1-1.13
		c-0.57-0.04-1.09,0.41-1.13,1c-1.02,16.39-7.06,31.76-17.49,44.44c-0.37,0.45-0.31,1.13,0.15,1.5
		C93.49,53.32,93.73,53.4,93.97,53.4z"/>
	<path class="st0" d="M88.13,58.68c-0.4-0.43-1.08-0.44-1.51-0.04c-1.28,1.21-2.47,2.28-3.64,3.26c-0.45,0.38-0.51,1.05-0.13,1.5
		c0.21,0.25,0.51,0.38,0.82,0.38c0.24,0,0.48-0.08,0.68-0.25c1.21-1.01,2.43-2.11,3.74-3.35C88.52,59.78,88.54,59.1,88.13,58.68z"/>
	<path class="st0" d="M115.7,7.35c0.04-0.59-0.41-1.09-1-1.13c-0.59-0.04-1.09,0.41-1.13,1c-1.17,19.53-9.41,37.95-23.21,51.87
		c-0.41,0.42-0.41,1.09,0.01,1.51c0.21,0.21,0.48,0.31,0.75,0.31c0.27,0,0.55-0.11,0.76-0.32C106.04,46.3,114.5,27.39,115.7,7.35z"
		/>
	<path class="st0" d="M88.3,61.08l-0.39,0.37c-0.17,0.16-0.33,0.32-0.5,0.48c-0.43,0.4-0.47,1.07-0.07,1.51
		c0.21,0.23,0.5,0.35,0.79,0.35c0.26,0,0.51-0.09,0.72-0.28c0.19-0.17,0.37-0.35,0.55-0.52l0.36-0.35c0.43-0.4,0.45-1.08,0.05-1.51
		C89.4,60.7,88.73,60.68,88.3,61.08z"/>
	<path class="st0" d="M117.63,6.22c-0.57-0.03-1.09,0.42-1.13,1c-1.19,20.72-10.03,40.16-24.88,54.74
		c-0.42,0.41-0.43,1.09-0.01,1.51c0.21,0.21,0.48,0.32,0.76,0.32c0.27,0,0.54-0.1,0.75-0.3c15.23-14.95,24.29-34.89,25.52-56.13
		C118.67,6.76,118.22,6.25,117.63,6.22z"/>
	<path class="st0" d="M120.57,6.22c-0.59-0.03-1.09,0.42-1.12,1c-1.14,20.44-9.57,39.89-23.75,54.76c-0.41,0.43-0.39,1.1,0.04,1.51
		c0.21,0.2,0.47,0.29,0.74,0.29c0.28,0,0.56-0.11,0.77-0.33c14.53-15.24,23.17-35.16,24.33-56.11
		C121.6,6.75,121.15,6.25,120.57,6.22z"/>
	<path class="st0" d="M123.5,6.22c-0.58-0.03-1.09,0.42-1.12,1.01c-1.09,20.22-9.15,39.67-22.7,54.78
		c-0.39,0.44-0.36,1.11,0.08,1.51c0.2,0.18,0.46,0.27,0.71,0.27c0.29,0,0.58-0.12,0.79-0.35c13.87-15.47,22.13-35.39,23.24-56.09
		C124.54,6.75,124.09,6.25,123.5,6.22z"/>
	<path class="st0" d="M118.57,40.09c0.14,0.06,0.28,0.09,0.42,0.09c0.41,0,0.81-0.24,0.98-0.65c3.78-8.82,6.18-18.14,7.14-27.71
		c0.06-0.59-0.37-1.11-0.95-1.17c-0.58-0.06-1.11,0.37-1.17,0.95c-0.93,9.35-3.28,18.46-6.97,27.08
		C117.77,39.23,118.02,39.86,118.57,40.09z"/>
	<path class="st0" d="M116.44,44.57c-0.52-0.27-1.17-0.07-1.44,0.45c-3.16,6.06-7.02,11.78-11.45,17.01
		c-0.38,0.45-0.33,1.12,0.12,1.5c0.2,0.17,0.45,0.25,0.69,0.25c0.3,0,0.6-0.13,0.81-0.38c4.54-5.35,8.48-11.2,11.71-17.4
		C117.16,45.49,116.96,44.84,116.44,44.57z"/>
	<path class="st0" d="M119.71,44.56c-0.53-0.26-1.17-0.05-1.43,0.47c-2.1,4.19-4.54,8.25-7.23,12.08c-0.34,0.48-0.22,1.15,0.26,1.48
		c0.19,0.13,0.4,0.19,0.61,0.19c0.34,0,0.66-0.16,0.87-0.45c2.76-3.92,5.25-8.07,7.39-12.35C120.45,45.47,120.24,44.83,119.71,44.56
		z"/>
	<path class="st0" d="M120.02,43.93c0.15,0.07,0.3,0.1,0.45,0.1c0.4,0,0.79-0.23,0.97-0.62c3.81-8.17,6.45-16.83,7.86-25.73
		c0.09-0.58-0.3-1.13-0.89-1.22c-0.57-0.09-1.13,0.3-1.22,0.89c-1.38,8.7-3.96,17.17-7.69,25.16
		C119.25,43.05,119.48,43.68,120.02,43.93z"/>
	<path class="st0" d="M211.79,6.22h-0.47c-0.01,0-0.01,0-0.02,0h-2.91h-2.93h-2.93h-2.93h-2.92h-2.93h-2.93h-2.93h-2.93h-2.93h-2.93
		h-2.79c-0.44,0-0.83,0.27-0.99,0.67l-0.15,0.37c0,0,0,0,0,0.01c0,0,0,0,0,0l-3.56,9.15c0,0,0,0,0,0.01l-1.95,5.01
		c-0.13,0.33-0.09,0.7,0.11,0.99c0.2,0.29,0.53,0.46,0.88,0.46h1.31c0.01,0,0.01,0,0.02,0h2.96h2.95h2.96h2.95h0.45l-2.43,5.15
		l-5.56,11.8l-9.79,20.76V57.1c0,0,0-0.01,0-0.01V48.9v-9.75V25.96V7.29c0-0.59-0.48-1.07-1.07-1.07h-0.96h-2.93h-2.93h-2.93h-2.93
		h-2.92h-2.91c-0.01,0-0.01,0-0.02,0h-0.25c-0.59,0-1.07,0.48-1.07,1.07v4.18c0,0.01,0,0.01,0,0.02v18.48v10.57v8.35v7.25v4.06
		l-0.07-0.17c0-0.01-0.01-0.01-0.01-0.02l-1.39-3.68c0,0,0,0,0,0c0,0,0,0,0,0l-1.44-3.77c0,0,0,0,0,0l-1.46-3.86c0,0,0,0,0,0
		c0,0,0,0,0,0l-1.51-3.96c0,0,0,0,0,0l-1.54-4.09c0,0,0,0,0,0c0,0,0,0,0,0l-1.61-4.23c0,0,0,0,0,0l-1.67-4.42
		c0-0.01-0.01-0.01-0.01-0.02l-1.75-4.6c0-0.01-0.01-0.01-0.01-0.02l-1.86-4.9c-0.17-0.44-0.61-0.72-1.08-0.69
		c-0.47,0.04-0.86,0.38-0.96,0.84c-2.6,12.41-7.52,24.04-14.61,34.55c-0.22,0.33-0.24,0.75-0.06,1.1c0.18,0.35,0.55,0.57,0.94,0.57
		h3.5c0,0,0.01,0,0.01,0h3.46c0,0,0.01,0,0.01,0h2.91l0.94,2.57c0,0,0,0,0,0c0,0,0,0,0,0l0.63,1.72c0.15,0.42,0.55,0.7,1,0.7h1.75
		h3.45h3.4h3.38h3.34c0,0,0.01,0,0.01,0h2.13c0.23,0,0.45-0.08,0.63-0.22c0.18,0.13,0.38,0.22,0.61,0.22h3.26h3.29h3.26h3.26h3.22
		c0,0,0.01,0,0.01,0h2.48c0.23,0,0.44-0.09,0.62-0.22c0.18,0.14,0.4,0.22,0.63,0.22h2.71h3.2h3.2h3.16h3.16h3.15h3.14h3.13h3.13
		h3.13h3.11h3.09c0,0,0.01,0,0.01,0h1.14c0.44,0,0.84-0.27,0.99-0.68l5.57-14.54c0.13-0.33,0.08-0.7-0.12-0.98
		c-0.2-0.29-0.53-0.46-0.88-0.46h-2.24c0,0-0.01,0-0.01,0h-3.04h-3.03h-3.04h-3.04h-2.13l1.14-2.41c0,0,0,0,0,0l5.58-11.85
		c0,0,0,0,0,0l4.33-9.16c0,0,0,0,0,0l3.71-7.86l3.29-6.99c0,0,0,0,0,0l0.51-1.09c0.16-0.33,0.13-0.72-0.06-1.02
		C212.5,6.4,212.16,6.22,211.79,6.22z M120.89,56.67c4.95-7.98,8.77-16.54,11.38-25.53l0.47,1.24c-2.56,8.52-6.23,16.69-10.9,24.29
		H120.89z M130.5,26.48l0.49,1.31c-2.65,10.24-6.89,19.95-12.59,28.88h-0.94C123.47,47.35,127.85,37.22,130.5,26.48z"/>
	<path class="st0" d="M261.5,6.22h-0.42h-2.92h-2.93h-2.93h-2.92h-2.93h-2.33c-0.59,0-1.07,0.48-1.07,1.07v18.03l-2.5-3.49
		c0,0,0,0,0,0l-2.61-3.65c0,0,0,0,0,0l-2.68-3.74c0,0,0,0,0,0l-2.72-3.8c0,0,0,0,0,0l-2.78-3.89c-0.02-0.03-0.05-0.05-0.08-0.08
		c-0.01-0.02-0.02-0.05-0.04-0.06c-0.03-0.03-0.07-0.05-0.1-0.07c-0.01-0.01-0.02-0.02-0.04-0.03c-0.19-0.16-0.42-0.27-0.68-0.27
		h-2.87h-2.93h-2.93h-2.92h-2.9c-0.59,0-1.07,0.48-1.07,1.07v28.08v13.71v10.59v3.05c0,0.59,0.48,1.07,1.07,1.07h2.09h3.08h3.08
		h3.08h3.07h2.97c0.59,0,1.07-0.48,1.07-1.07V51.99v-7.22l2.2,3.07c0,0,0,0,0,0l2.28,3.2c0,0,0,0,0,0c0,0,0,0,0,0l2.25,3.14
		c0,0,0,0,0,0l2.23,3.13c0,0,0,0,0,0c0,0,0,0,0,0l2.2,3.08c0,0,0,0,0,0l2.11,2.95c0.2,0.28,0.52,0.45,0.87,0.45h0.12h3.04h3.03h3.04
		h3.03c0,0,0.01,0,0.01,0h2.37c0.59,0,1.07-0.48,1.07-1.07V53c0-0.02,0.01-0.03,0.01-0.05v-16V7.29
		C262.56,6.7,262.09,6.22,261.5,6.22z"/>
</g>
</svg>
