<?xml version="1.0" encoding="utf-8"?>
<!-- Generator: Adobe Illustrator 26.0.3, SVG Export Plug-In . SVG Version: 6.00 Build 0)  -->
<svg version="1.1" id="Layer_1" xmlns="http://www.w3.org/2000/svg" xmlns:xlink="http://www.w3.org/1999/xlink" x="0px" y="0px"
	 viewBox="0 0 300 70" style="enable-background:new 0 0 300 70;" xml:space="preserve">
<style type="text/css">
	.st0{fill:#FFFFFF;}
</style>
<g>
	<path class="st0" d="M35.36,6.5h18.46v13.16L64.59,6.5h22.3L66.81,32.56L87.92,63.5H65.95L53.82,45.9v17.6H35.36V6.5z M46.13,56.66
		V45.13l8.89-11.02l15.55,22.56h2.65L56.55,32.31l15.3-18.97h-2.73L46.13,41.71V13.34h-2.22v43.33H46.13z"/>
	<path class="st0" d="M109.96,6.5h13.67l21.62,57h-17.95l-1.88-5.13h-17.26l-1.88,5.13H88.34L109.96,6.5z M101.08,56.66l1.62-4.27
		h28.2l1.62,4.27h2.39l-16.49-43.33h-3.25L98.68,56.66H101.08z M116.8,15.39l13.33,34.95h-26.66L116.8,15.39z M120.65,45.81
		l-3.85-10l-3.85,10H120.65z"/>
	<path class="st0" d="M146.54,6.5h19.31v57h-19.31V6.5z M157.31,56.66V13.34h-2.22v43.33H157.31z"/>
	<path class="st0" d="M186.96,21.45h-15.72l5.81-14.95h36.49l-19.83,42.05h18.72L206.7,63.5h-39.57L186.96,21.45z M202.26,56.66
		l0.86-2.05h-20.77l19.48-41.28h-20.34l-0.77,2.05h17.6l-19.48,41.28H202.26z"/>
	<path class="st0" d="M216.1,6.5h14.95l15.72,21.96V6.5h17.86v57H249.6l-15.64-21.88V63.5H216.1V6.5z M226.27,56.66V17.18
		l28.2,39.48h2.22V13.34h-2.22v39.48l-28.2-39.48h-2.22v43.33H226.27z"/>
</g>
</svg>
