<?xml version="1.0" encoding="utf-8"?>
<!-- Generator: Adobe Illustrator 26.0.3, SVG Export Plug-In . SVG Version: 6.00 Build 0)  -->
<svg version="1.1" id="Layer_1" xmlns="http://www.w3.org/2000/svg" xmlns:xlink="http://www.w3.org/1999/xlink" x="0px" y="0px"
	 viewBox="0 0 300 70" style="enable-background:new 0 0 300 70;" xml:space="preserve">
<style type="text/css">
	.st0{fill:#050505;}
</style>
<g>
	<path class="st0" d="M38.5,10c0.2,0,0.5-0.1,0.7-0.2c0.6-0.5,1.2-1.1,1.7-1.8c0.3-0.5,0.2-1.1-0.2-1.5c-0.5-0.3-1.1-0.2-1.5,0.2
		c-0.4,0.6-0.8,1-1.3,1.4s-0.5,1-0.2,1.5C37.9,9.9,38.2,10,38.5,10z"/>
	<path class="st0" d="M38.5,13.5c0.2,0,0.3,0,0.5-0.1c2.3-1.2,4.2-3.2,5.4-5.6c0.2-0.5,0-1.2-0.5-1.4s-1.2,0-1.4,0.5
		c-1,2-2.5,3.6-4.5,4.7c-0.5,0.3-0.7,0.9-0.4,1.4C37.8,13.3,38.1,13.5,38.5,13.5z"/>
	<path class="st0" d="M38.5,16.7c0.1,0,0.3,0,0.4-0.1c4-1.6,7.2-4.9,8.7-9C47.8,7,47.5,6.4,47,6.2c-0.5-0.2-1.2,0.1-1.4,0.6
		c-1.3,3.5-4,6.3-7.5,7.8c-0.5,0.2-0.8,0.8-0.6,1.4C37.7,16.5,38.1,16.7,38.5,16.7z"/>
	<path class="st0" d="M38.5,19.8c0.1,0,0.2,0,0.3,0c5.7-1.9,10.2-6.4,11.9-12.2C50.9,7,50.5,6.4,50,6.3c-0.6-0.2-1.2,0.2-1.3,0.7
		c-1.5,5.1-5.4,9.1-10.5,10.8c-0.6,0.2-0.9,0.8-0.7,1.3C37.6,19.5,38.1,19.8,38.5,19.8z"/>
	<path class="st0" d="M38.2,20.8c-0.6,0.2-0.9,0.7-0.7,1.3c0.1,0.5,0.6,0.8,1,0.8c0.1,0,0.2,0,0.3,0c7.3-2,13.1-7.9,15-15.3
		C53.9,7,53.5,6.4,53,6.2S51.8,6.4,51.7,7C50,13.7,44.8,19,38.2,20.8z"/>
	<path class="st0" d="M38.3,23.8c-0.6,0.1-0.9,0.7-0.8,1.3c0.1,0.5,0.5,0.8,1,0.8c0.1,0,0.2,0,0.2,0c9-2.1,16-9.4,18-18.4
		c0.1-0.6-0.2-1.1-0.8-1.3c-0.6-0.1-1.1,0.2-1.3,0.8C52.9,15.3,46.5,21.9,38.3,23.8z"/>
	<path class="st0" d="M55.5,13.5c-3.4,6.8-9.8,11.8-17.2,13.3c-0.6,0.1-0.9,0.7-0.8,1.3c0.1,0.5,0.5,0.9,1,0.9c0.1,0,0.2,0,0.2,0
		c8-1.7,15-7.1,18.7-14.5c0.3-0.5,0-1.2-0.5-1.4C56.4,12.7,55.8,12.9,55.5,13.5z"/>
	<path class="st0" d="M38.5,31.9c0.1,0,0.1,0,0.2,0c7.5-1.4,14.1-5.6,18.6-11.7c0.3-0.5,0.2-1.1-0.2-1.5s-1.1-0.2-1.5,0.2
		c-4.2,5.7-10.3,9.6-17.3,10.9c-0.6,0.1-1,0.7-0.8,1.2C37.5,31.5,38,31.9,38.5,31.9z"/>
	<path class="st0" d="M38.3,32.8c-0.6,0.1-1,0.7-0.9,1.2s0.5,0.9,1,0.9c0.1,0,0.1,0,0.2,0C51,32.8,61.3,23.6,64.8,11.4
		c0.2-0.6-0.2-1.2-0.7-1.3c-0.6-0.2-1.2,0.2-1.3,0.7C59.6,22.1,50,30.8,38.3,32.8z"/>
	<path class="st0" d="M38.3,35.7c-0.6,0.1-1,0.6-0.9,1.2c0.1,0.5,0.5,0.9,1,0.9c0,0,0.1,0,0.2,0c15.5-2.4,27.8-14.9,30-30.4
		c0.1-0.6-0.3-1.1-0.9-1.2s-1.1,0.3-1.2,0.9C64.5,21.7,52.9,33.5,38.3,35.7z"/>
	<path class="st0" d="M38.3,38.7c-0.6,0.1-1,0.6-0.9,1.2c0.1,0.5,0.5,0.9,1,0.9c0,0,0.1,0,0.2,0c17.2-2.5,30.7-16.2,33-33.4
		c0.1-0.6-0.3-1.1-0.9-1.2s-1.1,0.3-1.2,0.9C67.4,23.4,54.6,36.4,38.3,38.7z"/>
	<path class="st0" d="M38.4,41.6c-0.6,0.1-1,0.6-0.9,1.2c0.1,0.5,0.5,0.9,1,0.9h0.1c18.9-2.5,33.6-17.4,35.9-36.3
		c0.1-0.6-0.3-1.1-0.9-1.2s-1.1,0.3-1.2,0.9C70.3,25.1,56.3,39.3,38.4,41.6z"/>
	<path class="st0" d="M38.4,44.6c-0.6,0.1-1,0.6-0.9,1.2c0.1,0.5,0.5,0.9,1.1,0.9h0.1C59.2,44.2,75.2,28,77.5,7.4
		c0.1-0.6-0.3-1.1-0.9-1.2c-0.6-0.1-1.1,0.4-1.2,0.9C73.2,26.8,58,42.2,38.4,44.6z"/>
	<path class="st0" d="M38.4,47.5c-0.6,0.1-1,0.6-0.9,1.2c0.1,0.5,0.5,0.9,1.1,0.9h0.1c21.9-2.5,39.5-20.3,41.8-42.2
		c0.1-0.6-0.4-1.1-0.9-1.2s-1.1,0.4-1.2,0.9C76.1,28.1,59.3,45.1,38.4,47.5z"/>
	<path class="st0" d="M79.5,19.7c0.1,0,0.2,0.1,0.3,0.1c0.4,0,0.8-0.3,1-0.7c1.3-3.8,2.2-7.7,2.6-11.7c0.1-0.6-0.4-1.1-1-1.2
		s-1.1,0.4-1.2,1c-0.4,3.8-1.2,7.6-2.5,11.2C78.6,18.9,78.9,19.5,79.5,19.7z"/>
	<path class="st0" d="M69.7,34c-3.9,4.5-8.4,8.1-13.6,10.9c0,0,0,0-0.1,0.1h-0.1c-5.5,2.9-11.4,4.8-17.6,5.4c-0.6,0.1-1,0.6-0.9,1.2
		c0.1,0.5,0.5,1,1.1,1h0.1c6.5-0.7,12.6-2.6,18.3-5.7c0,0,0,0,0.1,0c0,0,0.1,0,0.1-0.1c5.4-2.9,10.1-6.7,14.2-11.4
		c0.4-0.4,0.3-1.1-0.1-1.5C70.8,33.5,70.1,33.6,69.7,34z"/>
	<path class="st0" d="M73,37.9c0.4-0.4,0.3-1.1-0.1-1.5s-1.1-0.3-1.5,0.1c-3.9,4.4-8.5,8-13.6,10.8c-0.5,0.3-0.7,0.9-0.5,1.4
		c-0.3-0.5-0.9-0.7-1.4-0.4c-5.5,2.8-11.5,4.5-17.6,5.1c-0.6,0.1-1,0.6-1,1.2c0.1,0.5,0.5,1,1.1,1h0.1c6.4-0.7,12.5-2.4,18.3-5.3
		c0.5-0.2,0.7-0.8,0.5-1.3c0.2,0.3,0.5,0.5,0.9,0.5c0.2,0,0.3,0,0.5-0.1C64.2,46.3,68.9,42.5,73,37.9z"/>
	<path class="st0" d="M84.3,13.6c0.1,0,0.1,0,0.2,0c0.5,0,0.9-0.4,1-0.9c0.3-1.8,0.6-3.6,0.8-5.4c0.1-0.6-0.4-1.1-1-1.2
		c-0.6-0.1-1.1,0.4-1.2,1c-0.2,1.8-0.4,3.5-0.8,5.2C83.4,13,83.7,13.5,84.3,13.6z"/>
	<path class="st0" d="M74.7,40.4c0.4-0.4,0.4-1.1-0.1-1.5c-0.4-0.4-1.1-0.4-1.5,0.1c-3.9,4.3-8.6,7.9-13.7,10.8
		c-0.5,0.3-0.7,0.9-0.4,1.5c0.2,0.3,0.6,0.5,0.9,0.5c0.2,0,0.3,0,0.5-0.1C65.8,48.7,70.6,44.9,74.7,40.4z"/>
	<path class="st0" d="M88.1,8.9L88.1,8.9c0.6,0,1.1-0.4,1.2-1c0-0.1,0-0.2,0-0.3V7.4c0.1-0.6-0.4-1.1-1-1.2c-0.6,0-1.1,0.4-1.2,1
		v0.6C87.1,8.3,87.5,8.9,88.1,8.9z"/>
	<path class="st0" d="M38.5,58.5C38.5,58.5,38.6,58.5,38.5,58.5c6.4-0.6,12.6-2.3,18.4-5c0.5-0.2,0.8-0.9,0.5-1.4
		c-0.2-0.5-0.9-0.8-1.4-0.5c-5.6,2.6-11.5,4.2-17.6,4.8c-0.6,0.1-1,0.6-1,1.2C37.5,58.1,38,58.5,38.5,58.5z"/>
	<path class="st0" d="M57.4,55.3c-0.2-0.5-0.9-0.8-1.4-0.5c-5.6,2.5-11.5,4-17.6,4.5c-0.6,0-1,0.6-1,1.2c0,0.5,0.5,1,1.1,1h0.1
		c6.3-0.6,12.5-2.2,18.3-4.7C57.4,56.5,57.7,55.8,57.4,55.3z"/>
	<path class="st0" d="M76.4,42.9c0.4-0.4,0.4-1.1-0.1-1.5c-0.4-0.4-1.1-0.4-1.5,0c-4,4.3-8.6,7.9-13.7,10.8
		c-0.5,0.3-0.7,0.9-0.4,1.5c0.2,0.3,0.6,0.5,0.9,0.5c0.2,0,0.4,0,0.5-0.1C67.4,51.1,72.2,47.3,76.4,42.9z"/>
	<path class="st0" d="M56,57.9c-4.2,1.7-8.6,3-13.1,3.7c-0.6,0.1-1,0.6-0.9,1.2c0.1,0.5,0.5,0.9,1,0.9c0.1,0,0.1,0,0.2,0
		c4.7-0.8,9.2-2.1,13.6-3.9c0.5-0.2,0.8-0.8,0.6-1.4C57.2,58,56.6,57.7,56,57.9z"/>
	<path class="st0" d="M78.1,45.4c0.4-0.4,0.4-1.1,0-1.5s-1.1-0.4-1.5,0c-4,4.2-8.7,7.8-13.7,10.7c-0.5,0.3-0.7,0.9-0.4,1.5
		c0.2,0.3,0.6,0.5,0.9,0.5c0.2,0,0.4,0,0.5-0.1C69.1,53.5,73.9,49.8,78.1,45.4z"/>
	<path class="st0" d="M56.1,61.1c-0.6,0.2-1.1,0.4-1.7,0.6c-0.5,0.2-0.8,0.8-0.6,1.4c0.2,0.4,0.6,0.7,1,0.7c0.1,0,0.2,0,0.4-0.1
		c0.6-0.2,1.2-0.4,1.8-0.7c0.5-0.2,0.8-0.8,0.6-1.4C57.2,61.1,56.6,60.9,56.1,61.1z"/>
	<path class="st0" d="M79.7,46.4c-0.4-0.4-1.1-0.4-1.5,0c-4.1,4.2-8.7,7.8-13.8,10.7c-0.5,0.3-0.7,0.9-0.4,1.5
		c0.2,0.3,0.6,0.5,0.9,0.5c0.2,0,0.4,0,0.5-0.1c5.2-3,10-6.7,14.2-11C80.2,47.5,80.2,46.8,79.7,46.4z"/>
	<path class="st0" d="M81.4,48.8c-0.4-0.4-1.1-0.4-1.5,0c-4.1,4.1-8.7,7.7-13.8,10.6c-0.5,0.3-0.7,1-0.4,1.5
		c0.2,0.3,0.6,0.5,0.9,0.5c0.2,0,0.4,0,0.5-0.1c5.2-3,10-6.7,14.2-11C81.8,49.9,81.8,49.3,81.4,48.8z"/>
	<path class="st0" d="M83.1,51.3c-0.4-0.4-1.1-0.4-1.5,0c-4.1,4-8.7,7.6-13.7,10.5c-0.5,0.3-0.7,1-0.4,1.5c0.2,0.3,0.6,0.5,0.9,0.5
		c0.2,0,0.4,0,0.5-0.2c5.1-3,9.9-6.7,14.1-10.8C83.5,52.4,83.5,51.7,83.1,51.3z"/>
	<path class="st0" d="M84.8,53.8c-0.4-0.4-1.1-0.4-1.5,0c-3.1,3-6.4,5.7-9.9,8.1c-0.5,0.3-0.6,1-0.3,1.5c0.2,0.3,0.5,0.5,0.9,0.5
		c0.2,0,0.4-0.1,0.6-0.2c3.6-2.4,7-5.2,10.2-8.3C85.2,54.9,85.2,54.2,84.8,53.8z"/>
	<path class="st0" d="M97.6,42.3c0.2,0.1,0.4,0.2,0.6,0.2c0.4,0,0.7-0.2,0.9-0.5c4.7-7.8,8-16.4,9.7-25.5c0.1-0.6-0.3-1.1-0.8-1.2
		c-0.6-0.1-1.1,0.3-1.2,0.9C105.2,25,102,33.3,97.4,41C96.9,41.3,97.1,42,97.6,42.3z"/>
	<path class="st0" d="M86.5,56.2c-0.4-0.4-1.1-0.4-1.5,0c-2.1,2-4.3,4-6.6,5.7c-0.5,0.4-0.6,1-0.2,1.5c0.2,0.3,0.5,0.4,0.8,0.4
		c0.2,0,0.4-0.1,0.6-0.2c2.3-1.8,4.6-3.7,6.8-5.8C86.8,57.3,86.9,56.6,86.5,56.2z"/>
	<path class="st0" d="M94,53.4c0.3,0,0.6-0.1,0.8-0.4c10.7-13,16.9-28.8,18-45.7c0-0.6-0.4-1.1-1-1.1s-1.1,0.4-1.1,1
		c-1,16.4-7.1,31.8-17.5,44.4c-0.4,0.5-0.3,1.1,0.2,1.5C93.5,53.3,93.7,53.4,94,53.4z"/>
	<path class="st0" d="M88.1,58.7c-0.4-0.4-1.1-0.4-1.5,0C85.3,59.9,84.1,61,83,62c-0.4,0.4-0.5,1-0.1,1.5c0.2,0.2,0.5,0.4,0.8,0.4
		c0.2,0,0.5-0.1,0.7-0.2c1.2-1,2.4-2.1,3.7-3.3C88.5,59.8,88.5,59.1,88.1,58.7z"/>
	<path class="st0" d="M115.7,7.3c0-0.6-0.4-1.1-1-1.1s-1.1,0.4-1.1,1c-1.2,19.5-9.4,38-23.2,51.9c-0.4,0.4-0.4,1.1,0,1.5
		c0.2,0.2,0.5,0.3,0.8,0.3s0.6-0.1,0.8-0.3C106,46.3,114.5,27.4,115.7,7.3z"/>
	<path class="st0" d="M88.3,61.1l-0.4,0.4c-0.2,0.2-0.3,0.3-0.5,0.5c-0.4,0.4-0.5,1.1-0.1,1.5c0.2,0.2,0.5,0.3,0.8,0.3
		s0.5-0.1,0.7-0.3s0.4-0.3,0.6-0.5l0.4-0.3c0.4-0.4,0.4-1.1,0.1-1.5C89.4,60.7,88.7,60.7,88.3,61.1z"/>
	<path class="st0" d="M117.6,6.2c-0.6,0-1.1,0.4-1.1,1c-1.2,20.7-10,40.2-24.9,54.7c-0.4,0.4-0.4,1.1,0,1.5c0.2,0.2,0.5,0.3,0.8,0.3
		s0.5-0.1,0.8-0.3c15.2-15,24.3-34.9,25.5-56.1C118.7,6.8,118.2,6.2,117.6,6.2z"/>
	<path class="st0" d="M120.6,6.2c-0.6,0-1.1,0.4-1.1,1c-1.1,20.4-9.6,39.9-23.8,54.8c-0.4,0.4-0.4,1.1,0,1.5
		c0.2,0.2,0.5,0.3,0.7,0.3c0.3,0,0.6-0.1,0.8-0.3c14.5-15.2,23.2-35.2,24.3-56.1C121.6,6.8,121.2,6.2,120.6,6.2z"/>
	<path class="st0" d="M123.5,6.2c-0.6,0-1.1,0.4-1.1,1c-1.1,20.2-9.2,39.7-22.7,54.8c-0.4,0.4-0.4,1.1,0.1,1.5
		c0.2,0.2,0.5,0.3,0.7,0.3c0.3,0,0.6-0.1,0.8-0.3C115.1,48,123.4,28,124.5,7.3C124.5,6.8,124.1,6.2,123.5,6.2z"/>
	<path class="st0" d="M118.6,40.1c0.1,0.1,0.3,0.1,0.4,0.1c0.4,0,0.8-0.2,1-0.7c3.8-8.8,6.2-18.1,7.1-27.7c0.1-0.6-0.4-1.1-0.9-1.2
		c-0.6-0.1-1.1,0.4-1.2,0.9c-0.9,9.4-3.3,18.5-7,27.1C117.8,39.2,118,39.9,118.6,40.1z"/>
	<path class="st0" d="M116.4,44.6c-0.5-0.3-1.2-0.1-1.4,0.5c-3.2,6.1-7,11.8-11.4,17c-0.4,0.5-0.3,1.1,0.1,1.5
		c0.2,0.2,0.4,0.2,0.7,0.2c0.3,0,0.6-0.1,0.8-0.4c4.5-5.3,8.5-11.2,11.7-17.4C117.2,45.5,117,44.8,116.4,44.6z"/>
	<path class="st0" d="M119.7,44.6c-0.5-0.3-1.2,0-1.4,0.5c-2.1,4.2-4.5,8.2-7.2,12.1c-0.3,0.5-0.2,1.2,0.3,1.5
		c0.2,0.1,0.4,0.2,0.6,0.2c0.3,0,0.7-0.2,0.9-0.5c2.8-3.9,5.2-8.1,7.4-12.4C120.4,45.5,120.2,44.8,119.7,44.6z"/>
	<path class="st0" d="M120,43.9c0.2,0.1,0.3,0.1,0.4,0.1c0.4,0,0.8-0.2,1-0.6c3.8-8.2,6.4-16.8,7.9-25.7c0.1-0.6-0.3-1.1-0.9-1.2
		c-0.6-0.1-1.1,0.3-1.2,0.9c-1.4,8.7-4,17.2-7.7,25.2C119.2,43,119.5,43.7,120,43.9z"/>
	<path class="st0" d="M211.8,6.2h-0.5l0,0h-2.9h-2.9h-2.9h-2.9h-2.9h-2.9H191h-2.9H185h-3h-2.9h-2.8c-0.4,0-0.8,0.3-1,0.7l-0.1,0.4
		l0,0l0,0l-3.6,9.1l0,0l-1.9,5c-0.1,0.3-0.1,0.7,0.1,1c0.2,0.3,0.5,0.5,0.9,0.5h1.3l0,0h3h2.9h3h2.9h0.4l-2.4,5.1l-5.6,11.8
		l-9.8,20.8v-3.5l0,0v-8.2v-9.8V26V7.3c0-0.6-0.5-1.1-1.1-1.1h-1h-2.9h-2.9h-2.9h-2.9h-2.9h-2.9l0,0h-0.2c-0.6,0-1.1,0.5-1.1,1.1
		v4.2l0,0V30v10.6v8.3v7.2v4.1l-0.1-0.2l0,0l-1.4-3.7l0,0l0,0l-1.4-3.8l0,0l-1.5-3.9l0,0l0,0l-1.5-4l0,0l-1.5-4.1l0,0l0,0l-1.6-4.2
		l0,0l-1.7-4.4l0,0l-1.8-4.6l0,0l-1.9-4.9c-0.2-0.4-0.6-0.7-1.1-0.7s-0.9,0.4-1,0.8c-2.6,12.4-7.5,24-14.6,34.5
		c-0.2,0.3-0.2,0.8-0.1,1.1s0.6,0.6,0.9,0.6h3.5l0,0h3.5l0,0h2.9l0.9,2.6l0,0l0,0l0.6,1.7c0.2,0.4,0.6,0.7,1,0.7h1.8h3.4h3.4h3.4
		h3.3l0,0h2.1c0.2,0,0.4-0.1,0.6-0.2c0.2,0.1,0.4,0.2,0.6,0.2h3.3h3.3h3.3h3.3h3.2l0,0h2.5c0.2,0,0.4-0.1,0.6-0.2
		c0.2,0.1,0.4,0.2,0.6,0.2h2.7h3.2h3.2h3.2h3.2h3.1h3.1h3.1h3.1h3.1h3.1h3.1l0,0h1.1c0.4,0,0.8-0.3,1-0.7l5.6-14.5
		c0.1-0.3,0.1-0.7-0.1-1c-0.2-0.3-0.5-0.5-0.9-0.5h-2.2l0,0h-3h-3h-3h-3H194l1.1-2.4l0,0l5.6-11.9l0,0l4.3-9.2l0,0l3.7-7.9l3.3-7
		l0,0l0.5-1.1c0.2-0.3,0.1-0.7-0.1-1C212.5,6.4,212.2,6.2,211.8,6.2z M120.9,56.7c4.9-8,8.8-16.5,11.4-25.5l0.5,1.2
		c-2.6,8.5-6.2,16.7-10.9,24.3H120.9z M130.5,26.5l0.5,1.3c-2.6,10.2-6.9,19.9-12.6,28.9h-0.9C123.5,47.3,127.8,37.2,130.5,26.5z"/>
	<path class="st0" d="M261.5,6.2h-0.4h-2.9h-2.9h-2.9h-2.9h-2.9h-2.3c-0.6,0-1.1,0.5-1.1,1.1v18l-2.5-3.5l0,0l-2.6-3.6l0,0l-2.7-3.7
		l0,0l-2.7-3.8l0,0l-2.8-3.9l-0.1-0.1V6.6l-0.1-0.1l0,0c-0.2-0.2-0.4-0.3-0.7-0.3h-3h-3h-2.9h-2.9h-2.9c-0.6,0-1.1,0.5-1.1,1.1v28.1
		v13.7v10.6v3c0,0.6,0.5,1.1,1.1,1.1h2.1h3.1h3.1h3.1h3.1h3c0.6,0,1.1-0.5,1.1-1.1V52v-7.2l2.2,3.1l0,0l2.3,3.2l0,0l0,0l2.2,3.1l0,0
		l2.2,3.1l0,0l0,0l2.2,3.1l0,0l2.1,3c0.2,0.3,0.5,0.5,0.9,0.5h0.1h3h3h3h3l0,0h2.4c0.6,0,1.1-0.5,1.1-1.1V53l0,0V37V7.3
		C262.6,6.7,262.1,6.2,261.5,6.2z"/>
</g>
</svg>
