<?xml version="1.0" encoding="utf-8"?>
<!-- Generator: Adobe Illustrator 26.0.3, SVG Export Plug-In . SVG Version: 6.00 Build 0)  -->
<svg version="1.1" id="Layer_1" xmlns="http://www.w3.org/2000/svg" xmlns:xlink="http://www.w3.org/1999/xlink" x="0px" y="0px"
	 viewBox="0 0 64 64" style="enable-background:new 0 0 64 64;" xml:space="preserve">
<g>
	<path d="M55.8,46.9H9.2c-0.5,0-0.9,0.4-0.9,1v9.8c0,0.5,0.4,0.9,0.9,0.9h46.6c0.5,0,0.9-0.4,0.9-1v-9.8
		C56.7,47.3,56.3,46.9,55.8,46.9z M54.9,56.8H10.1v-7.8h2.8v1.7c0,0.5,0.4,1,0.9,1c0.5,0,0.9-0.4,0.9-1v-1.7h2.4v3.3
		c0,0.5,0.4,1,0.9,1c0.5,0,0.9-0.4,0.9-1v-3.3h2.4v1.7c0,0.5,0.4,1,0.9,1s0.9-0.4,0.9-1v-1.7h2.4v3.3c0,0.5,0.4,1,0.9,1
		c0.5,0,0.9-0.4,0.9-1v-3.3h2.4v1.7c0,0.5,0.4,1,0.9,1c0.5,0,0.9-0.4,0.9-1v-1.7h2.4v3.3c0,0.5,0.4,1,0.9,1s0.9-0.4,0.9-1v-3.3H38
		v1.7c0,0.5,0.4,1,0.9,1s0.9-0.4,0.9-1v-1.7h2.4v3.3c0,0.5,0.4,1,0.9,1s0.9-0.4,0.9-1v-3.3h2.4v1.7c0,0.5,0.4,1,0.9,1s0.9-0.4,0.9-1
		v-1.7h2.4v3.3c0,0.5,0.4,1,0.9,1s0.9-0.4,0.9-1v-3.3h2.4L54.9,56.8L54.9,56.8z"/>
	<path d="M52.3,5.3c-2.8,0-5.2,2.2-5.8,5.3c0,0.1,0,0.2,0,0.3L6.8,10.6c-0.2,0.1-0.5,0.1-0.6,0.3C6,11,6,11.2,6,11.5v18.1
		c0,1.4,0.6,2.8,1.4,3.8l9.5,10.3l0,0c1,1.1,2.3,1.8,3.7,1.8h31.6c3.2,0,5.9-2.9,5.9-6.4V11.7C58.1,8.2,55.5,5.3,52.3,5.3L52.3,5.3z
		 M15.5,39.5l-5.8-6.3c2.1,0.3,4.4,0,5.8-0.2V39.5z M52.3,43.6H20.7c-1.8,0-3.4-1.7-3.4-3.7v-8.1c0-0.3-0.1-0.6-0.3-0.8
		c-0.2-0.2-0.5-0.3-0.7-0.2c-1.7,0.3-6.4,1-8.3-0.3c-0.1-0.3-0.2-0.7-0.2-1V12.5l38.6,0.3v26.3c0,0.5,0.4,1,0.9,1s0.9-0.4,0.9-1
		c0-0.3,0-0.6,0.1-0.8c0.4-2.1,2.1-3.7,4-3.7c2.3,0,4.1,2,4.1,4.5C56.4,41.6,54.5,43.6,52.3,43.6L52.3,43.6z M56.4,34.5
		c-1-1.2-2.5-1.8-4.1-1.8c-1.6,0-3.1,0.8-4.1,1.8V11.7c0-0.3,0-0.6,0.1-0.8c0.4-2.1,2.1-3.7,4-3.7c2.3,0,4.1,2,4.1,4.5V34.5z"/>
	<path d="M43.2,14.1H13.3c-0.5,0-0.9,0.4-0.9,1v5.7c0,0.5,0.4,1,0.9,1h29.9c0.5,0,0.9-0.4,0.9-1v-5.7C44.1,14.6,43.7,14.1,43.2,14.1
		L43.2,14.1z M42.3,19.7H14.2V16h28.1V19.7z"/>
	<path d="M21.7,28.4v-4.1c0-0.5-0.4-1-0.9-1h-5.4c-0.5,0-0.9,0.4-0.9,1v4.1c0,0.5,0.4,1,0.9,1h5.4C21.3,29.4,21.7,29,21.7,28.4
		L21.7,28.4z M19.9,27.5h-3.6v-2.2h3.6V27.5z"/>
	<path d="M31.8,28.4v-4.1c0-0.5-0.4-1-0.9-1h-5.4c-0.5,0-0.9,0.4-0.9,1v4.1c0,0.5,0.4,1,0.9,1H31C31.4,29.4,31.8,29,31.8,28.4z
		 M30.1,27.5h-3.6v-2.2h3.6V27.5z"/>
	<path d="M41.9,28.4v-4.1c0-0.5-0.4-1-0.9-1h-5.4c-0.5,0-0.9,0.4-0.9,1v4.1c0,0.5,0.4,1,0.9,1H41C41.5,29.4,41.9,29,41.9,28.4
		L41.9,28.4z M40.1,27.5h-3.6v-2.2h3.6V27.5z"/>
	<path d="M19.1,31.8c0,0.5,0.4,1,0.9,1h1.8c0.5,0,0.9-0.4,0.9-1c0-0.6-0.4-1-0.9-1h-1.8C19.5,30.9,19.1,31.3,19.1,31.8z"/>
	<path d="M28.2,30.9c-0.5,0-0.9,0.4-0.9,1s0.4,0.9,0.9,0.9h1.8c0.5,0,0.9-0.4,0.9-1c0-0.6-0.4-1-0.9-1L28.2,30.9L28.2,30.9z"/>
	<path d="M36.5,30.9c-0.5,0-0.9,0.4-0.9,1s0.4,1,0.9,1h1.8c0.5,0,0.9-0.4,0.9-1s-0.4-1-0.9-1H36.5z"/>
	<path d="M42,34.2H19c-0.5,0-0.9,0.4-0.9,1c0,0.5,0.4,1,0.9,1h23c0.5,0,0.9-0.4,0.9-1C42.9,34.7,42.5,34.2,42,34.2L42,34.2z"/>
	<path d="M34.3,38.6H19c-0.5,0-0.9,0.4-0.9,1c0,0.5,0.4,1,0.9,1h15.2c0.5,0,0.9-0.4,0.9-1C35.1,39.1,34.7,38.6,34.3,38.6L34.3,38.6z
		"/>
</g>
</svg>
