<svg xmlns="http://www.w3.org/2000/svg" viewBox="0 0 64 64"><g id="_12-glove" data-name="12-glove"><path d="M11,32a1,1,0,0,1-.641-.232A17.783,17.783,0,0,1,4,19a1,1,0,0,1,.636-.931l6.639-2.6a41.438,41.438,0,0,1,22.22-13.5C34.407,1.214,35.05.67,35.225.5A1.757,1.757,0,0,1,37.158.144a4.441,4.441,0,0,1,2.461,3.7c.032.677-.639,1.651-2,2.913l4.088-1.9a1,1,0,0,1,.773-.029c.33.124,3.226,1.276,3.335,3.581.019.385.054,1.143-3.025,2.969A2.939,2.939,0,0,1,44.866,12a3.319,3.319,0,0,1,.161,4.841,1,1,0,0,1-.331.219L32.928,21.839c.64.068,1.352.126,2.119.162,3.357.159,4.7,3.242,4.942,4.851A1,1,0,0,1,39,28H28l-11.847-.238-4.489,3.986A1,1,0,0,1,11,32ZM6.045,19.665a16.2,16.2,0,0,0,4.952,10l4.121-3.66a1.05,1.05,0,0,1,.685-.252L28.021,26h9.628a3.09,3.09,0,0,0-2.7-2A33.827,33.827,0,0,1,29,23.23a1,1,0,0,1-.136-1.9L43.724,15.3a1.32,1.32,0,0,0-.272-1.883c-.848-.517-5.6.747-10.936,2.856q-1.1.462-2.33.961a1,1,0,0,1-.771-1.846c.72-.309,1.518-.642,2.361-.981,5.526-2.343,11.063-5.03,12.007-6.075-.173-.595-1.016-1.154-1.645-1.461L29.173,12.885a1,1,0,0,1-.96-1.749c4.187-2.681,8.917-6.191,9.4-7.282a2.663,2.663,0,0,0-1.109-1.818c-.346.315-1.107.953-2.06,1.74l.007.048-.083.014c-2.749,2.266-7.023,5.7-7.681,6.228L25.437,8.507c1.217-.977,2.657-2.138,4.054-3.27A40.281,40.281,0,0,0,12.64,16.956a1,1,0,0,1-.4.286ZM37.635,3.806Z"/><path d="M8,34a1,1,0,0,1-.581-.186C.084,28.575,0,19.389,0,19a1,1,0,0,1,.553-.895l2-1A1,1,0,0,1,3,17c2.966,0,3,1.918,3,2H4a.323.323,0,0,0,.044.208s-.169-.17-.818-.2l-1.195.6c.152,1.98,1.037,8.375,6.184,12.313l2.493-.624,1-1,1,1a1,1,0,0,1-.465,1.677l-4,1A1,1,0,0,1,8,34Z"/><path d="M53,62a1,1,0,0,1-.664-.252l-4.489-3.986L36.021,58H25a1,1,0,0,1-.989-1.148C24.253,55.243,25.6,52.16,28.953,52c.767-.036,1.479-.094,2.119-.162L19.3,47.058a1,1,0,0,1-.331-.219A3.319,3.319,0,0,1,19.134,42a2.939,2.939,0,0,1,2.079-.615c-3.079-1.826-3.044-2.584-3.026-2.969.11-2.3,3.006-3.457,3.336-3.581a1.006,1.006,0,0,1,.773.029l4.088,1.9c-1.364-1.262-2.035-2.236-2-2.913a4.441,4.441,0,0,1,2.461-3.7,1.758,1.758,0,0,1,1.934.353c.174.173.817.717,1.729,1.472a41.438,41.438,0,0,1,22.22,13.5l6.639,2.6A1,1,0,0,1,60,49a17.783,17.783,0,0,1-6.359,12.768A1,1,0,0,1,53,62Zm-4.782-6.246a1,1,0,0,1,.664.252L53,59.666a16.186,16.186,0,0,0,4.951-10l-6.193-2.423a1,1,0,0,1-.4-.286A40.281,40.281,0,0,0,34.509,35.237c1.4,1.132,2.837,2.293,4.053,3.27l-1.251,1.559c-.658-.527-4.933-3.962-7.681-6.228l-.083-.014.007-.048c-.954-.787-1.715-1.426-2.06-1.74a2.663,2.663,0,0,0-1.109,1.818c.477,1.063,5.2,4.591,9.4,7.282a1,1,0,0,1-.96,1.749L21.861,36.866c-.627.306-1.471.866-1.644,1.461.944,1.045,6.481,3.732,12.007,6.076.843.338,1.641.671,2.361.98a1,1,0,0,1-.771,1.846q-1.227-.5-2.328-.96c-5.336-2.11-10.1-3.374-10.963-2.837a1.307,1.307,0,0,0-.245,1.864L35.14,51.333A1,1,0,0,1,35,53.23,33.827,33.827,0,0,1,29.047,54a3.089,3.089,0,0,0-2.7,2H36l12.2-.246ZM26.365,33.806"/><path d="M56,64a1,1,0,0,1-.242-.03l-4-1a1,1,0,0,1-.465-1.677l1-1,1,1,2.493.624c5.147-3.938,6.032-10.333,6.184-12.313l-1.2-.6c-.649.033-.817.2-.818.2A.323.323,0,0,0,60,49H58c0-.082.034-2,3-2a1,1,0,0,1,.447.1l2,1A1,1,0,0,1,64,49c0,.389-.084,9.575-7.419,14.814A1,1,0,0,1,56,64Z"/><path d="M51,33a1,1,0,0,1-1-1c0-3.955-3.837-4-4-4a1,1,0,0,1,0-2c3.954,0,4-3.837,4-4a1,1,0,0,1,2,0,3.85,3.85,0,0,0,4,4,1,1,0,0,1,0,2,3.85,3.85,0,0,0-4,4A1,1,0,0,1,51,33ZM49.5,27.026A5.293,5.293,0,0,1,51,28.467a5.293,5.293,0,0,1,1.505-1.441A5.3,5.3,0,0,1,51,25.454,5.3,5.3,0,0,1,49.5,27.026Z"/><path d="M11,53a1,1,0,0,1-1-1c0-3.955-3.837-4-4-4a1,1,0,0,1,0-2c3.954,0,4-3.837,4-4a1,1,0,0,1,2,0,3.85,3.85,0,0,0,4,4,1,1,0,0,1,0,2,3.85,3.85,0,0,0-4,4A1,1,0,0,1,11,53ZM9.495,47.026A5.293,5.293,0,0,1,11,48.467a5.293,5.293,0,0,1,1.505-1.441A5.3,5.3,0,0,1,11,45.454,5.3,5.3,0,0,1,9.495,47.026Z"/><path d="M9,14a1,1,0,0,1-1-1C8,9.045,4.163,9,4,9A1,1,0,0,1,4,7C7.954,7,8,3.163,8,3a1,1,0,0,1,2,0,3.85,3.85,0,0,0,4,4,1,1,0,0,1,0,2,3.85,3.85,0,0,0-4,4A1,1,0,0,1,9,14ZM7.5,8.026A5.293,5.293,0,0,1,9,9.467a5.293,5.293,0,0,1,1.505-1.441A5.3,5.3,0,0,1,9,6.454,5.3,5.3,0,0,1,7.5,8.026Z"/></g></svg>