<svg xmlns="http://www.w3.org/2000/svg" viewBox="0 0 64 64"><g id="_18-protection" data-name="18-protection"><path d="M32,30a5.006,5.006,0,0,1-5-5V21a1,1,0,0,1,1-1h8a1,1,0,0,1,1,1v4A5.006,5.006,0,0,1,32,30Zm-3-8v3a3,3,0,0,0,6,0V22Z"/><path d="M37,21H35V19a1,1,0,0,1,.293-.707L35.586,18H30a1,1,0,0,0-1,1v2H27V19a3,3,0,0,1,3-3h8a1,1,0,0,1,.707,1.707L37,19.414Z"/><path d="M40,42H24a1,1,0,0,1-1-1V32a1,1,0,0,1,.836-.986L29,30.153V28h2v3a1,1,0,0,1-.836.986L25,32.847V40H39V32.847l-5.164-.861A1,1,0,0,1,33,31V28h2v2.153l5.164.861A1,1,0,0,1,41,32v9A1,1,0,0,1,40,42Z"/><path d="M32,34a1,1,0,0,1-.707-.293l-2-2,1.414-1.414L32,31.586l1.293-1.293,1.414,1.414-2,2A1,1,0,0,1,32,34Z"/><rect x="31" y="33" width="2" height="8"/><path d="M32,51a1,1,0,0,1-.447-.1l-14-7A1,1,0,0,1,17,43V18a1,1,0,0,1,1-1,4,4,0,0,0,4-4,1,1,0,0,1,1-1H41a1,1,0,0,1,1,1,4,4,0,0,0,4,4,1,1,0,0,1,1,1V43a1,1,0,0,1-.553.9l-14,7A1,1,0,0,1,32,51ZM19,42.382l13,6.5,13-6.5V18.917A6.017,6.017,0,0,1,40.083,14H23.917A6.017,6.017,0,0,1,19,18.917Z"/><path d="M32,56a.994.994,0,0,1-.485-.126l-18-10A1,1,0,0,1,13,45V15a1,1,0,0,1,1-1,5.006,5.006,0,0,0,5-5,1,1,0,0,1,1-1H44a1,1,0,0,1,1,1,5.006,5.006,0,0,0,5,5,1,1,0,0,1,1,1V45a1,1,0,0,1-.515.874l-18,10A.994.994,0,0,1,32,56ZM15,44.411l17,9.445,17-9.445V15.929A7.016,7.016,0,0,1,43.071,10H20.929A7.016,7.016,0,0,1,15,15.929Z"/><path d="M58.293,63.707,51,56.414l-1.293,1.293A1,1,0,0,1,48,57V49a1,1,0,0,1,1-1h8a1,1,0,0,1,.707,1.707L56.414,51l7.293,7.293-1.414,1.414-8-8a1,1,0,0,1,0-1.414L54.586,50H50v4.586l.293-.293a1,1,0,0,1,1.414,0l8,8Z"/><path d="M5.707,63.707,4.293,62.293l8-8a1,1,0,0,1,1.414,0l.293.293V50H9.414l.293.293a1,1,0,0,1,0,1.414l-8,8L.293,58.293,7.586,51,6.293,49.707A1,1,0,0,1,7,48h8a1,1,0,0,1,1,1v8a1,1,0,0,1-1.707.707L13,56.414Z"/><path d="M60,13H52a1,1,0,0,1-1-1V4a1,1,0,0,1,1.707-.707L54,4.586,58.293.293l1.414,1.414-5,5a1,1,0,0,1-1.414,0L53,6.414V11h4.586l-.293-.293a1,1,0,0,1,0-1.414l5-5,1.414,1.414L59.414,10l1.293,1.293A1,1,0,0,1,60,13Z"/><path d="M12,13H4a1,1,0,0,1-.707-1.707L4.586,10,.293,5.707,1.707,4.293l5,5a1,1,0,0,1,0,1.414L6.414,11H11V6.414l-.293.293a1,1,0,0,1-1.414,0l-5-5L5.707.293,10,4.586l1.293-1.293A1,1,0,0,1,13,4v8A1,1,0,0,1,12,13Z"/><path d="M58,38a1,1,0,0,1-.707-.293l-5-5a1,1,0,0,1,0-1.414l5-5A1,1,0,0,1,59,27v2h4v2H58a1,1,0,0,1-1-1v-.586L54.414,32,57,34.586V34a1,1,0,0,1,1-1h5v2H59v2a1,1,0,0,1-.617.924A.987.987,0,0,1,58,38Z"/><path d="M6,38a.987.987,0,0,1-.383-.076A1,1,0,0,1,5,37V35H1V33H6a1,1,0,0,1,1,1v.586L9.586,32,7,29.414V30a1,1,0,0,1-1,1H1V29H5V27a1,1,0,0,1,1.707-.707l5,5a1,1,0,0,1,0,1.414l-5,5A1,1,0,0,1,6,38Z"/></g></svg>