<svg xmlns="http://www.w3.org/2000/svg" viewBox="0 0 64 70"><defs><style>.cls-1{opacity:0.8;}.cls-2,.cls-4{fill:none;stroke-linecap:round;}.cls-2,.cls-3,.cls-4{stroke:#fff;}.cls-2{stroke-linejoin:round;}.cls-3{fill:#fff;}.cls-3,.cls-4{stroke-miterlimit:10;}</style></defs><g id="_10-quarantine" data-name="10-quarantine"><g class="cls-1"><line class="cls-2" x1="41.42" y1="43.56" x2="37.76" y2="43.56"/><line class="cls-2" x1="26.58" y1="43.56" x2="22.93" y2="43.56"/><polyline class="cls-2" points="11.75 43.56 10.83 43.56 10.83 45.89 12.21 45.89 13.83 45.89 50.47 45.89 52.09 45.89 53.47 45.89 53.47 43.56 52.59 43.56"/><rect class="cls-2" x="12.21" y="45.89" width="1.62" height="9.16"/><rect class="cls-2" x="50.47" y="45.89" width="1.62" height="9.16"/><line class="cls-2" x1="21.3" y1="41.36" x2="13.38" y2="41.36"/><path class="cls-2" d="M22.78,42.23l.17.89a.91.91,0,0,1-.9,1.09H12.63a.91.91,0,0,1-.9-1.09l.17-.89"/><path class="cls-2" d="M12.07,38.4V32.34a1.83,1.83,0,0,1,1.83-1.83h6.88a1.83,1.83,0,0,1,1.83,1.83V38.4"/><line class="cls-2" x1="21.3" y1="41.36" x2="13.38" y2="41.36"/><path class="cls-2" d="M12.07,38.4h0a1.31,1.31,0,0,1,1.31,1.31v2.51a0,0,0,0,1,0,0H10.76a0,0,0,0,1,0,0V39.71A1.31,1.31,0,0,1,12.07,38.4Z"/><path class="cls-2" d="M22.61,38.4h0a1.31,1.31,0,0,1,1.31,1.31v2.51a0,0,0,0,1,0,0H21.3a0,0,0,0,1,0,0V39.71A1.31,1.31,0,0,1,22.61,38.4Z"/><path class="cls-2" d="M37.61,42.23l.17.89a.91.91,0,0,1-.9,1.09H27.46a.91.91,0,0,1-.9-1.09l.17-.89"/><line class="cls-2" x1="36.13" y1="41.36" x2="28.21" y2="41.36"/><line class="cls-2" x1="36.13" y1="41.36" x2="28.21" y2="41.36"/><path class="cls-2" d="M26.9,38.4V32.34a1.83,1.83,0,0,1,1.83-1.83h6.88a1.83,1.83,0,0,1,1.83,1.83V38.4"/><path class="cls-2" d="M26.9,38.4h0a1.31,1.31,0,0,1,1.31,1.31v2.51a0,0,0,0,1,0,0H25.59a0,0,0,0,1,0,0V39.71A1.31,1.31,0,0,1,26.9,38.4Z"/><path class="cls-2" d="M37.44,38.4h0a1.31,1.31,0,0,1,1.31,1.31v2.51a0,0,0,0,1,0,0H36.13a0,0,0,0,1,0,0V39.71A1.31,1.31,0,0,1,37.44,38.4Z"/><path class="cls-2" d="M41.56,42.23l-.17.89a.82.82,0,0,0,0,.44.92.92,0,0,0,.87.65h9.43a.92.92,0,0,0,.87-.65.93.93,0,0,0,0-.44l-.17-.89"/><line class="cls-2" x1="50.96" y1="41.36" x2="43.04" y2="41.36"/><line class="cls-2" x1="50.96" y1="41.36" x2="43.04" y2="41.36"/><path class="cls-2" d="M41.73,38.4V32.34a1.83,1.83,0,0,1,1.83-1.83h6.88a1.82,1.82,0,0,1,1.83,1.83V38.4"/><path class="cls-2" d="M41.73,38.4h0A1.31,1.31,0,0,1,43,39.71v2.51a0,0,0,0,1,0,0H40.42a0,0,0,0,1,0,0V39.71A1.31,1.31,0,0,1,41.73,38.4Z"/><path class="cls-2" d="M52.27,38.4h0a1.31,1.31,0,0,1,1.31,1.31v2.51a0,0,0,0,1,0,0H51a0,0,0,0,1,0,0V39.71A1.31,1.31,0,0,1,52.27,38.4Z"/><path class="cls-3" d="M33.9,17.34a1.9,1.9,0,1,1-3.8,0,1.87,1.87,0,0,1,.81-1.51v-.66a.82.82,0,0,1,.6-.78.54.54,0,0,1,1,0,.82.82,0,0,1,.6.78v.66A1.87,1.87,0,0,1,33.9,17.34Z"/><line class="cls-4" x1="36.98" y1="21.23" x2="35.63" y2="19.88"/><line class="cls-4" x1="33.82" y1="23.05" x2="33.33" y2="21.21"/><line class="cls-4" x1="30.18" y1="23.05" x2="30.67" y2="21.21"/><line class="cls-4" x1="27.02" y1="21.22" x2="28.37" y2="19.88"/><path class="cls-3" d="M49.13,17.34a1.91,1.91,0,1,1-3.81,0,1.88,1.88,0,0,1,.82-1.51v-.66a.82.82,0,0,1,.6-.78.53.53,0,0,1,1,0,.8.8,0,0,1,.6.78v.66A1.88,1.88,0,0,1,49.13,17.34Z"/><line class="cls-4" x1="52.2" y1="21.23" x2="50.86" y2="19.88"/><line class="cls-4" x1="49.05" y1="23.05" x2="48.55" y2="21.21"/><line class="cls-4" x1="45.4" y1="23.05" x2="45.9" y2="21.21"/><line class="cls-4" x1="42.25" y1="21.22" x2="43.6" y2="19.88"/><path class="cls-3" d="M18.68,17.34a1.91,1.91,0,1,1-3.81,0,1.88,1.88,0,0,1,.82-1.51v-.66a.8.8,0,0,1,.6-.78.53.53,0,0,1,1,0,.82.82,0,0,1,.6.78v.66A1.88,1.88,0,0,1,18.68,17.34Z"/><line class="cls-4" x1="21.75" y1="21.23" x2="20.4" y2="19.88"/><line class="cls-4" x1="18.59" y1="23.05" x2="18.1" y2="21.21"/><line class="cls-4" x1="14.95" y1="23.05" x2="15.44" y2="21.21"/><line class="cls-4" x1="11.8" y1="21.22" x2="13.14" y2="19.88"/></g></g></svg>