<?xml version="1.0" encoding="utf-8"?>
<!-- Generator: Adobe Illustrator 26.0.3, SVG Export Plug-In . SVG Version: 6.00 Build 0)  -->
<svg version="1.1" id="Layer_1" xmlns="http://www.w3.org/2000/svg" xmlns:xlink="http://www.w3.org/1999/xlink" x="0px" y="0px"
	 viewBox="0 0 64 70" style="enable-background:new 0 0 64 70;" xml:space="preserve">
<style type="text/css">
	.st0{fill:url(#SVGID_1_);}
	.st1{opacity:0.8;}
	.st2{fill:none;stroke:#FFFFFF;stroke-linejoin:round;}
	.st3{fill:#FFFFFF;stroke:#FFFFFF;stroke-miterlimit:10;}
	.st4{fill:none;stroke:#FFFFFF;stroke-linecap:round;stroke-miterlimit:10;}
</style>
<radialGradient id="SVGID_1_" cx="31.76" cy="29.1835" r="15" gradientUnits="userSpaceOnUse">
	<stop  offset="0" style="stop-color:#8888FF;stop-opacity:0.6"/>
	<stop  offset="0.1668" style="stop-color:#8D8DFF;stop-opacity:0.4999"/>
	<stop  offset="0.3553" style="stop-color:#9A9AFF;stop-opacity:0.3868"/>
	<stop  offset="0.5545" style="stop-color:#B1B1FF;stop-opacity:0.2673"/>
	<stop  offset="0.7611" style="stop-color:#D1D1FF;stop-opacity:0.1433"/>
	<stop  offset="0.9715" style="stop-color:#F9F9FF;stop-opacity:1.712656e-02"/>
	<stop  offset="1" style="stop-color:#FFFFFF;stop-opacity:0"/>
</radialGradient>
<circle class="st0" cx="31.8" cy="29.2" r="15"/>
<g id="_10-quarantine">
	<g class="st1">
		<path class="st2" d="M24,40.5L24,40.5c1.6,0,2.9-1.3,2.9-2.9l0,0v-2.4h-5.8v2.4C21.1,39.2,22.4,40.5,24,40.5z"/>
		<path class="st2" d="M26.9,35.1v-1.3c0-0.8-0.7-1.4-1.5-1.3h-5.8l1.5,1.3v1.3"/>
		<polyline class="st2" points="25.5,39.8 25.5,42.4 29.8,43.2 29.8,51 18.2,51 18.2,43.2 22.6,42.4 22.6,39.8 		"/>
		<polyline class="st2" points="25.5,42.4 24,44.1 22.6,42.4 		"/>
		<line class="st2" x1="24" y1="44.1" x2="24" y2="51"/>
		<path class="st2" d="M40,40.5L40,40.5c-1.6,0-2.9-1.3-2.9-2.9l0,0v-2.4h5.8v2.4C42.9,39.2,41.6,40.5,40,40.5L40,40.5z"/>
		<path class="st2" d="M37.1,35.1v-0.7c0,0,0-2,2.9-2s2.9,2,2.9,2v0.7"/>
		<polyline class="st2" points="38.5,39.8 38.5,42.4 34.2,43.2 34.2,51 45.8,51 45.8,43.2 41.4,42.4 41.4,39.8 		"/>
		<polyline class="st2" points="38.5,42.4 40,44.1 41.4,42.4 		"/>
		<line class="st2" x1="40" y1="44.1" x2="38.5" y2="51"/>
		<line class="st2" x1="40" y1="44.1" x2="41.4" y2="51"/>
		<polygon class="st2" points="32,11.2 9.5,21.6 9.5,25.9 32,15.6 54.5,25.9 54.5,21.6 		"/>
		<rect x="10.9" y="51" class="st2" width="42.1" height="3.5"/>
		<polyline class="st2" points="12.4,51 12.4,24.6 12.4,24.2 		"/>
		<line class="st2" x1="51.6" y1="24.2" x2="51.6" y2="51"/>
		<rect x="42.9" y="9.5" class="st2" width="7.3" height="3.5"/>
		<line class="st2" x1="44.3" y1="13" x2="44.3" y2="17.3"/>
		<line class="st2" x1="48.7" y1="13" x2="48.7" y2="19"/>
		<polyline class="st2" points="15.3,51 15.3,27.7 32,19.9 48.7,27.7 48.7,51 		"/>
		<path class="st3" d="M33.8,26.2c0,1.1-0.9,1.9-1.9,1.9S30,27.3,30,26.2c0-0.6,0.3-1.2,0.8-1.5V24c0-0.4,0.3-0.7,0.6-0.8
			c0.1-0.2,0.3-0.3,0.5-0.3c0.2,0,0.4,0.1,0.5,0.3c0.4,0.1,0.6,0.4,0.6,0.8v0.7C33.5,25,33.8,25.6,33.8,26.2z"/>
		<line class="st4" x1="35" y1="31.1" x2="33.5" y2="29.2"/>
		<line class="st4" x1="31.9" y1="32.2" x2="31.9" y2="29.9"/>
		<line class="st4" x1="28.8" y1="31.2" x2="30.2" y2="29.3"/>
	</g>
</g>
</svg>
