<svg xmlns="http://www.w3.org/2000/svg" viewBox="0 0 64 70"><defs><style>.cls-1,.cls-3,.cls-5{opacity:0.8;}.cls-2,.cls-3,.cls-5{fill:none;stroke-linecap:round;}.cls-2,.cls-3,.cls-4,.cls-5{stroke:#fff;}.cls-2,.cls-3{stroke-linejoin:round;}.cls-4{fill:#fff;}.cls-4,.cls-5{stroke-miterlimit:10;}</style></defs><g id="_10-quarantine" data-name="10-quarantine"><g class="cls-1"><g class="cls-1"><path class="cls-2" d="M49.62,40.8a1.58,1.58,0,0,0,.48-2.18l-5.2-8.21a1,1,0,0,0-.69-.48H36.49a1,1,0,0,0-.68.48L30.6,38.62a1.59,1.59,0,0,0,.48,2.18h0a1.58,1.58,0,0,0,2.21-.48l2.91-4.59V54.46h3.68l.47-13.74.47,13.74H44.5V35.73l2.92,4.59a1.57,1.57,0,0,0,2.2.48Z"/><rect class="cls-2" x="37.67" y="23.92" width="5.46" height="5.99" rx="2.73"/></g><polyline class="cls-3" points="41.58 14.96 55.32 14.96 55.32 9.54 25.1 9.54 25.1 14.96 39.06 14.96"/><rect class="cls-3" x="26.84" y="11.24" width="2.01" height="2.01"/><rect class="cls-3" x="30.61" y="11.24" width="2.01" height="2.01"/><line class="cls-3" x1="53.17" y1="12.25" x2="47.11" y2="12.25"/><g class="cls-1"><rect class="cls-2" x="25.1" y="14.96" width="3.05" height="39.5"/><rect class="cls-2" x="52.27" y="14.96" width="3.05" height="39.5"/></g><rect class="cls-3" x="10.32" y="36.98" width="14.78" height="1.88"/><rect class="cls-3" x="11.39" y="38.87" width="1.39" height="15.59"/><g class="cls-1"><path class="cls-4" d="M42.26,16.38a1.94,1.94,0,1,1-3.88,0A1.88,1.88,0,0,1,39.06,15h2.52A1.83,1.83,0,0,1,42.26,16.38Z"/></g><line class="cls-5" x1="37.5" y1="18.7" x2="30.5" y2="30.7"/><line class="cls-5" x1="43.5" y1="18.7" x2="50.5" y2="30.7"/></g></g></svg>