<?xml version="1.0" encoding="utf-8"?>
<!-- Generator: Adobe Illustrator 26.0.3, SVG Export Plug-In . SVG Version: 6.00 Build 0)  -->
<svg version="1.1" id="Layer_1" xmlns="http://www.w3.org/2000/svg" xmlns:xlink="http://www.w3.org/1999/xlink" x="0px" y="0px"
	 viewBox="0 0 64 70" style="enable-background:new 0 0 64 70;" xml:space="preserve">
<style type="text/css">
	.st0{opacity:0.8;}
	.st1{fill:#FFFFFF;}
	.st2{opacity:0.8;fill:#FFFFFF;stroke:#FFFFFF;stroke-miterlimit:10;}
	.st3{opacity:0.8;fill:none;stroke:#FFFFFF;stroke-linecap:round;stroke-miterlimit:10;}
</style>
<g id="outline" class="st0">
	<path class="st1" d="M21.3,21.8c-1.8,0-3.3,1.5-3.3,3.3c0,1.8,1.5,3.3,3.3,3.3c1.8,0,3.3-1.5,3.3-3.3
		C24.7,23.3,23.2,21.8,21.3,21.8z M21.3,27.1c-1.1,0-2-0.9-2-2c0-1.1,0.9-2,2-2c1.1,0,2,0.9,2,2C23.3,26.2,22.5,27.1,21.3,27.1z
		 M34.7,40.4v-1.3H28v-6c0-1.8-1.5-3.3-3.3-3.3H18c-1.8,0-3.3,1.5-3.3,3.3v6h-2c-0.4,0-0.7,0.3-0.7,0.7v16.6c0,0.4,0.3,0.7,0.7,0.7
		h22v-1.3H13.4V40.4H34.7z M16,33.1c0-1.1,0.9-2,2-2h6.7c1.1,0,2,0.9,2,2v6h-1.3v-5.3H24v5.3h-5.3v-5.3h-1.3v5.3H16V33.1z
		 M33.3,39.1h-2.7 M51.3,39.1h-0.7v16.7H48v1.3h3.3c0.4,0,0.7-0.3,0.7-0.7V39.8C52,39.4,51.7,39.1,51.3,39.1z M42.7,21.8
		c-1.8,0-3.3,1.5-3.3,3.3c0,1.8,1.5,3.3,3.3,3.3c1.8,0,3.3-1.5,3.3-3.3C46,23.3,44.5,21.8,42.7,21.8z M42.7,27.1c-1.1,0-2-0.9-2-2
		c0-1.1,0.9-2,2-2c1.1,0,2,0.9,2,2C44.7,26.2,43.8,27.1,42.7,27.1z M46,29.8h-6.7c-1.8,0-3.3,1.5-3.3,3.3v10c0,0.4,0.3,0.7,0.7,0.7
		h2v10.5L37.4,56c-0.2,0.3-0.1,0.7,0.2,0.9c0.1,0.1,0.2,0.1,0.4,0.1h8c0.4,0,0.7-0.3,0.7-0.7V43.8h2c0.4,0,0.7-0.3,0.7-0.7v-10
		C49.3,31.3,47.8,29.8,46,29.8z M48,42.4h-1.3v-8.6h-1.3v22h-2V45.1H42v10.7h-2.8l0.6-1c0.1-0.1,0.1-0.2,0.1-0.4V33.8h-1.3v8.6h-1.3
		v-9.3c0-1.1,0.9-2,2-2H46c1.1,0,2,0.9,2,2V42.4z M14.7,44.4v4H16v-4H14.7z M14.7,41.8v1.3H16v-1.3H14.7z"/>
</g>
<path class="st2" d="M34.5,16c0.1,1.1-0.7,2-1.8,2c-1.1,0.1-2-0.7-2-1.8c0-0.1,0-0.2,0-0.3c0-0.6,0.3-1.2,0.8-1.5v-0.7
	c0-0.4,0.2-0.7,0.6-0.8c0.1-0.3,0.4-0.4,0.7-0.3c0.2,0.1,0.3,0.2,0.3,0.3c0.4,0.1,0.6,0.4,0.6,0.8v0.7C34.2,14.8,34.5,15.4,34.5,16z
	"/>
<line class="st3" x1="37.5" y1="19.9" x2="36.2" y2="18.5"/>
<line class="st3" x1="34.4" y1="21.7" x2="33.9" y2="19.9"/>
<line class="st3" x1="30.7" y1="21.7" x2="31.2" y2="19.9"/>
<line class="st3" x1="27.6" y1="19.9" x2="28.9" y2="18.5"/>
</svg>
