<svg xmlns="http://www.w3.org/2000/svg" viewBox="0 0 64 70"><defs><style>.cls-1{opacity:0.8;}.cls-2,.cls-4{fill:none;}.cls-2,.cls-3,.cls-4{stroke:#fff;}.cls-2{stroke-linejoin:round;}.cls-3{fill:#fff;}.cls-3,.cls-4{stroke-miterlimit:10;}.cls-4{stroke-linecap:round;}</style></defs><g id="_24-Tainted" data-name="24-Tainted"><g class="cls-1"><path class="cls-2" d="M43.61,48.69a6.07,6.07,0,0,1-2.17-5.08c0-3.63,1.45-5.8.72-8.71s1.45-3.63,1.45-3.63,2.18,4.36,3.63,6.54,2.18,6.53,2.18,6.53H54.5"/><path class="cls-2" d="M29.65,39.51c1.23.45,2.51.87,3.56,1.2l1.93.58.49.15"/><path class="cls-2" d="M29.82,36.65a31.59,31.59,0,0,0,5.81,1.88,42.88,42.88,0,0,1,6.26,1.37l.27.08"/><path class="cls-2" d="M35.63,40a29.71,29.71,0,0,0-2.18,10.17"/><path class="cls-2" d="M34.18,45.06c-3.63,0-10.89-2.9-10.89-2.9s-2.18,0-2.18,1.45c0,1,4.9,3.23,7.64,4.36"/><path class="cls-2" d="M23.29,42.16a7.33,7.33,0,0,1-.9-.72"/><path class="cls-2" d="M33.21,40.71a17.71,17.71,0,0,1-3.89-.54"/><path class="cls-2" d="M54.5,54.5h-8s-.73,0-7.26-.73c-5.81-.72-16-4.05-16-5.08,0-1.45.73-1.45.73-1.45l4.73.73,4.7.72"/><rect class="cls-2" x="9.5" y="9.5" width="20.32" height="31.94" rx="4"/><line class="cls-2" x1="9.5" y1="13.85" x2="29.82" y2="13.85"/><line class="cls-2" x1="16.76" y1="11.68" x2="22.56" y2="11.68"/><line class="cls-2" x1="29.82" y1="37.08" x2="9.5" y2="37.08"/><line class="cls-2" x1="22.56" y1="39.26" x2="16.76" y2="39.26"/><line class="cls-2" x1="12.4" y1="16.03" x2="12.4" y2="17.48"/><line class="cls-2" x1="12.4" y1="18.94" x2="12.4" y2="24.74"/><circle class="cls-2" cx="24.74" cy="24.02" r="1.45"/><line class="cls-2" x1="24.74" y1="22.56" x2="24.74" y2="20.39"/><line class="cls-2" x1="24.74" y1="27.65" x2="24.74" y2="25.47"/><line class="cls-2" x1="26.19" y1="24.02" x2="28.37" y2="24.02"/><line class="cls-2" x1="21.11" y1="24.02" x2="23.29" y2="24.02"/><line class="cls-2" x1="25.77" y1="22.99" x2="27.31" y2="21.45"/><line class="cls-2" x1="22.18" y1="26.58" x2="23.72" y2="25.04"/><line class="cls-2" x1="25.77" y1="25.04" x2="27.31" y2="26.58"/><line class="cls-2" x1="22.18" y1="21.45" x2="23.72" y2="22.99"/><circle class="cls-2" cx="17.48" cy="31.27" r="1.45"/><line class="cls-2" x1="17.48" y1="29.82" x2="17.48" y2="27.65"/><line class="cls-2" x1="17.48" y1="34.9" x2="17.48" y2="32.73"/><line class="cls-2" x1="18.94" y1="31.27" x2="21.11" y2="31.27"/><line class="cls-2" x1="13.85" y1="31.27" x2="16.03" y2="31.27"/><line class="cls-2" x1="18.51" y1="30.25" x2="20.05" y2="28.71"/><line class="cls-2" x1="14.92" y1="33.84" x2="16.46" y2="32.3"/><line class="cls-2" x1="18.51" y1="32.3" x2="20.05" y2="33.84"/><line class="cls-2" x1="14.92" y1="28.71" x2="16.46" y2="30.25"/><line class="cls-2" x1="24.02" y1="34.9" x2="25.47" y2="34.9"/><line class="cls-2" x1="26.19" y1="30.55" x2="27.65" y2="30.55"/><line class="cls-2" x1="24.74" y1="17.48" x2="26.19" y2="17.48"/><g class="cls-1"><path class="cls-3" d="M46.52,18a2.91,2.91,0,0,1-5.82,0A2.88,2.88,0,0,1,42,15.66v-1a1.25,1.25,0,0,1,.92-1.2.82.82,0,0,1,.74-.46.84.84,0,0,1,.75.46,1.27,1.27,0,0,1,.92,1.2v1A2.87,2.87,0,0,1,46.52,18Z"/></g><line class="cls-4" x1="34.88" y1="11.98" x2="38.89" y2="14.36"/><line class="cls-4" x1="33.52" y1="18.39" x2="38.15" y2="17.84"/><line class="cls-4" x1="36.34" y1="24.3" x2="39.68" y2="21.05"/><line class="cls-4" x1="42.18" y1="27.28" x2="42.85" y2="22.67"/><line class="cls-4" x1="48.62" y1="26.08" x2="46.35" y2="22.02"/><line class="cls-4" x1="53.01" y1="21.21" x2="48.73" y2="19.37"/><line class="cls-4" x1="53.52" y1="14.68" x2="49" y2="15.83"/></g></g></svg>