<?xml version="1.0" encoding="utf-8"?>
<!-- Generator: Adobe Illustrator 26.0.3, SVG Export Plug-In . SVG Version: 6.00 Build 0)  -->
<svg version="1.1" id="Layer_1" xmlns="http://www.w3.org/2000/svg" xmlns:xlink="http://www.w3.org/1999/xlink" x="0px" y="0px"
	 viewBox="0 0 64 70" style="enable-background:new 0 0 64 70;" xml:space="preserve">
<style type="text/css">
	.st0{opacity:0.8;}
	.st1{fill:none;stroke:#000000;stroke-linejoin:round;}
	.st2{fill:#FFFFFF;stroke:#000000;stroke-miterlimit:10;}
	.st3{fill:none;stroke:#000000;stroke-linecap:round;stroke-miterlimit:10;}
</style>
<g id="_24-Tainted">
	<g class="st0">
		<path class="st1" d="M43.6,48.7c-1.5-1.2-2.3-3.1-2.2-5.1c0-3.6,1.5-5.8,0.7-8.7s1.5-3.6,1.5-3.6s2.2,4.4,3.6,6.5s2.2,6.5,2.2,6.5
			h5.1"/>
		<path class="st1" d="M29.6,39.5c1.2,0.5,2.5,0.9,3.6,1.2l1.9,0.6l0.5,0.2"/>
		<path class="st1" d="M29.8,36.7c1.9,0.8,3.8,1.4,5.8,1.9c2.1,0.3,4.2,0.8,6.3,1.4l0.3,0.1"/>
		<path class="st1" d="M35.6,40c-1.3,3.2-2.1,6.7-2.2,10.2"/>
		<path class="st1" d="M34.2,45.1c-3.6,0-10.9-2.9-10.9-2.9s-2.2,0-2.2,1.5c0,1,4.9,3.2,7.6,4.4"/>
		<path class="st1" d="M23.3,42.2c-0.3-0.2-0.6-0.5-0.9-0.7"/>
		<path class="st1" d="M33.2,40.7c-1.3,0-2.6-0.2-3.9-0.5"/>
		<path class="st1" d="M54.5,54.5h-8c0,0-0.7,0-7.3-0.7c-5.8-0.7-16-4-16-5.1c0-1.5,0.7-1.5,0.7-1.5l4.7,0.7l4.7,0.7"/>
		<path class="st1" d="M13.5,9.5h12.3c2.2,0,4,1.8,4,4v23.9c0,2.2-1.8,4-4,4H13.5c-2.2,0-4-1.8-4-4V13.5C9.5,11.3,11.3,9.5,13.5,9.5
			z"/>
		<line class="st1" x1="9.5" y1="13.9" x2="29.8" y2="13.9"/>
		<line class="st1" x1="16.8" y1="11.7" x2="22.6" y2="11.7"/>
		<line class="st1" x1="29.8" y1="37.1" x2="9.5" y2="37.1"/>
		<line class="st1" x1="22.6" y1="39.3" x2="16.8" y2="39.3"/>
		<line class="st1" x1="12.4" y1="16" x2="12.4" y2="17.5"/>
		<line class="st1" x1="12.4" y1="18.9" x2="12.4" y2="24.7"/>
		<circle class="st1" cx="24.7" cy="24" r="1.5"/>
		<line class="st1" x1="24.7" y1="22.6" x2="24.7" y2="20.4"/>
		<line class="st1" x1="24.7" y1="27.6" x2="24.7" y2="25.5"/>
		<line class="st1" x1="26.2" y1="24" x2="28.4" y2="24"/>
		<line class="st1" x1="21.1" y1="24" x2="23.3" y2="24"/>
		<line class="st1" x1="25.8" y1="23" x2="27.3" y2="21.5"/>
		<line class="st1" x1="22.2" y1="26.6" x2="23.7" y2="25"/>
		<line class="st1" x1="25.8" y1="25" x2="27.3" y2="26.6"/>
		<line class="st1" x1="22.2" y1="21.5" x2="23.7" y2="23"/>
		<circle class="st1" cx="17.5" cy="31.3" r="1.5"/>
		<line class="st1" x1="17.5" y1="29.8" x2="17.5" y2="27.6"/>
		<line class="st1" x1="17.5" y1="34.9" x2="17.5" y2="32.7"/>
		<line class="st1" x1="18.9" y1="31.3" x2="21.1" y2="31.3"/>
		<line class="st1" x1="13.9" y1="31.3" x2="16" y2="31.3"/>
		<line class="st1" x1="18.5" y1="30.2" x2="20" y2="28.7"/>
		<line class="st1" x1="14.9" y1="33.8" x2="16.5" y2="32.3"/>
		<line class="st1" x1="18.5" y1="32.3" x2="20" y2="33.8"/>
		<line class="st1" x1="14.9" y1="28.7" x2="16.5" y2="30.2"/>
		<line class="st1" x1="24" y1="34.9" x2="25.5" y2="34.9"/>
		<line class="st1" x1="26.2" y1="30.5" x2="27.6" y2="30.5"/>
		<line class="st1" x1="24.7" y1="17.5" x2="26.2" y2="17.5"/>
		<g class="st0">
			<path class="st2" d="M46.5,18c0,1.6-1.3,2.9-2.9,2.9c-1.6,0-2.9-1.3-2.9-2.9c0-0.9,0.5-1.8,1.3-2.3v-1c0-0.6,0.4-1.1,0.9-1.2
				c0.1-0.3,0.4-0.5,0.7-0.5c0.3,0,0.6,0.2,0.8,0.5c0.5,0.2,0.9,0.6,0.9,1.2v1C46.1,16.2,46.5,17.1,46.5,18z"/>
		</g>
		<line class="st3" x1="34.9" y1="12" x2="38.9" y2="14.4"/>
		<line class="st3" x1="33.5" y1="18.4" x2="38.2" y2="17.8"/>
		<line class="st3" x1="36.3" y1="24.3" x2="39.7" y2="21"/>
		<line class="st3" x1="42.2" y1="27.3" x2="42.8" y2="22.7"/>
		<line class="st3" x1="48.6" y1="26.1" x2="46.3" y2="22"/>
		<line class="st3" x1="53" y1="21.2" x2="48.7" y2="19.4"/>
		<line class="st3" x1="53.5" y1="14.7" x2="49" y2="15.8"/>
	</g>
</g>
</svg>
