<svg xmlns="http://www.w3.org/2000/svg" viewBox="0 0 64 70"><defs><style>.cls-1{opacity:0.8;}.cls-2,.cls-4{fill:none;}.cls-2,.cls-3,.cls-4{stroke:#fff;}.cls-2{stroke-linejoin:round;}.cls-3{fill:#fff;}.cls-3,.cls-4{stroke-miterlimit:10;}.cls-4{stroke-linecap:round;}</style></defs><g id="_10-quarantine" data-name="10-quarantine"><g class="cls-1"><path class="cls-2" d="M24,40.46h0a2.9,2.9,0,0,0,2.9-2.9V35.13H21.11v2.43A2.9,2.9,0,0,0,24,40.46Z"/><path class="cls-2" d="M26.92,35.13V33.79a1.4,1.4,0,0,0-1.45-1.33H19.66l1.45,1.33v1.34"/><polyline class="cls-2" points="25.47 39.79 25.47 42.38 29.82 43.25 29.82 51.04 18.21 51.04 18.21 43.25 22.57 42.38 22.57 39.79"/><polyline class="cls-2" points="25.47 42.38 24.02 44.12 22.57 42.38"/><line class="cls-2" x1="24.02" y1="44.12" x2="24.02" y2="51.04"/><path class="cls-2" d="M40,40.46h0a2.9,2.9,0,0,1-2.9-2.9V35.13h5.81v2.43A2.9,2.9,0,0,1,40,40.46Z"/><path class="cls-2" d="M37.08,35.13v-.67s0-2,2.9-2,2.91,2,2.91,2v.67"/><polyline class="cls-2" points="38.53 39.79 38.53 42.38 34.18 43.25 34.18 51.04 45.79 51.04 45.79 43.25 41.44 42.38 41.44 39.79"/><polyline class="cls-2" points="38.53 42.38 39.98 44.12 41.44 42.38"/><line class="cls-2" x1="39.98" y1="44.12" x2="38.53" y2="51.04"/><line class="cls-2" x1="39.98" y1="44.12" x2="41.44" y2="51.04"/><polygon class="cls-2" points="32 11.23 9.5 21.61 9.5 25.94 32 15.56 54.5 25.94 54.5 21.61 32 11.23"/><rect class="cls-2" x="10.95" y="51.04" width="42.1" height="3.46"/><polyline class="cls-2" points="12.4 51.04 12.4 24.6 12.4 24.21"/><line class="cls-2" x1="51.6" y1="24.21" x2="51.6" y2="51.04"/><rect class="cls-2" x="42.89" y="9.5" width="7.26" height="3.46"/><line class="cls-2" x1="44.34" y1="12.96" x2="44.34" y2="17.29"/><line class="cls-2" x1="48.69" y1="12.96" x2="48.69" y2="19.02"/><polyline class="cls-2" points="15.31 51.04 15.31 27.67 32 19.88 48.69 27.67 48.69 51.04"/><path class="cls-3" d="M33.84,26.21a1.94,1.94,0,0,1-3.88,0,1.92,1.92,0,0,1,.83-1.55V24a.83.83,0,0,1,.62-.8.55.55,0,0,1,.49-.31.56.56,0,0,1,.5.31A.84.84,0,0,1,33,24v.67A1.92,1.92,0,0,1,33.84,26.21Z"/><line class="cls-4" x1="35" y1="31.06" x2="33.55" y2="29.25"/><line class="cls-4" x1="31.92" y1="32.18" x2="31.87" y2="29.86"/><line class="cls-4" x1="28.8" y1="31.2" x2="30.18" y2="29.32"/></g></g></svg>