<svg xmlns="http://www.w3.org/2000/svg" viewBox="0 0 64 70"><defs><style>.cls-1{opacity:0.8;}.cls-2,.cls-4{fill:none;}.cls-2,.cls-3,.cls-4{stroke:#fff;}.cls-2{stroke-linejoin:round;}.cls-3{fill:#fff;}.cls-3,.cls-4{stroke-miterlimit:10;}.cls-4{stroke-linecap:round;}</style></defs><g id="_03-dont_touch" data-name="03-dont touch"><g class="cls-1"><path class="cls-2" d="M14.18,31.58l10.35,8.3,6.74-.5,5.39,0s-.46,2.28-2.26,2.29a4,4,0,0,0-2.7.92l8.07,3.59a1.27,1.27,0,0,1,0,1.82c-.91.91-7.63-2.23-7.63-2.23s8.07,3.59,8.06,4.5-1.35,1.37-1.35,1.37L31.67,48S37,51.62,37,52.53s-.9,1.82-1.35,1.37-5.37-4.51-5.37-4.51"/><path class="cls-2" d="M14.18,43.61l8.52,3A28.43,28.43,0,0,0,34.34,55s.65,0,1.95-1.3"/><path class="cls-2" d="M54.5,14.67,44.15,23l-6.74-.5-5.39,0s.46,2.28,2.26,2.29a4,4,0,0,1,2.7.92l-8.07,3.59a1.27,1.27,0,0,0,0,1.82c.91.91,7.63-2.23,7.63-2.23s-8.07,3.59-8.06,4.5,1.35,1.37,1.35,1.37L37,31.11s-5.37,3.6-5.37,4.51S32.55,37.44,33,37s5.37-4.51,5.37-4.51"/><path class="cls-2" d="M54.5,26.7l-8.52,3a28.31,28.31,0,0,1-11.64,8.36s-.65,0-2-1.3"/><g class="cls-1"><path class="cls-3" d="M22.53,18.32a2.91,2.91,0,0,1-5.82,0A2.86,2.86,0,0,1,18,16V15a1.25,1.25,0,0,1,.92-1.2.82.82,0,0,1,.74-.46.84.84,0,0,1,.75.46,1.26,1.26,0,0,1,.91,1.2v1A2.83,2.83,0,0,1,22.53,18.32Z"/></g><line class="cls-4" x1="28.35" y1="12.32" x2="24.35" y2="14.71"/><line class="cls-4" x1="29.71" y1="18.73" x2="25.09" y2="18.19"/><line class="cls-4" x1="26.89" y1="24.65" x2="23.55" y2="21.4"/><line class="cls-4" x1="21.05" y1="27.62" x2="20.38" y2="23.01"/><line class="cls-4" x1="14.61" y1="26.43" x2="16.89" y2="22.36"/><line class="cls-4" x1="10.23" y1="21.56" x2="14.51" y2="19.72"/><line class="cls-4" x1="9.71" y1="15.02" x2="14.23" y2="16.17"/></g></g></svg>