<?xml version="1.0" encoding="utf-8"?>
<!-- Generator: Adobe Illustrator 26.0.3, SVG Export Plug-In . SVG Version: 6.00 Build 0)  -->
<svg version="1.1" id="Layer_1" xmlns="http://www.w3.org/2000/svg" xmlns:xlink="http://www.w3.org/1999/xlink" x="0px" y="0px"
	 viewBox="0 0 64 70" style="enable-background:new 0 0 64 70;" xml:space="preserve">
<style type="text/css">
	.st0{fill:url(#SVGID_1_);}
	.st1{opacity:0.8;}
	.st2{fill:#FFFFFF;}
	.st3{opacity:0.8;fill:#FFFFFF;stroke:#FFFFFF;stroke-miterlimit:10;enable-background:new    ;}
	.st4{opacity:0.8;fill:none;stroke:#FFFFFF;stroke-linecap:round;stroke-miterlimit:10;enable-background:new    ;}
</style>
<radialGradient id="SVGID_1_" cx="32.76" cy="19.1835" r="7.814" gradientTransform="matrix(1.9654 0 0 1.9654 -31.6278 -18.5206)" gradientUnits="userSpaceOnUse">
	<stop  offset="0" style="stop-color:#8888FF;stop-opacity:0.6"/>
	<stop  offset="0.1668" style="stop-color:#8D8DFF;stop-opacity:0.4999"/>
	<stop  offset="0.3553" style="stop-color:#9A9AFF;stop-opacity:0.3868"/>
	<stop  offset="0.5545" style="stop-color:#B1B1FF;stop-opacity:0.2673"/>
	<stop  offset="0.7611" style="stop-color:#D1D1FF;stop-opacity:0.1433"/>
	<stop  offset="0.9715" style="stop-color:#F9F9FF;stop-opacity:1.712656e-02"/>
	<stop  offset="1" style="stop-color:#FFFFFF;stop-opacity:0"/>
</radialGradient>
<circle class="st0" cx="32.8" cy="19.2" r="15.4"/>
<g id="outline" class="st1">
	<path class="st2" d="M21.3,21.8c-1.8,0-3.3,1.5-3.3,3.3s1.5,3.3,3.3,3.3s3.3-1.5,3.3-3.3C24.7,23.3,23.2,21.8,21.3,21.8z
		 M21.3,27.1c-1.1,0-2-0.9-2-2s0.9-2,2-2s2,0.9,2,2S22.5,27.1,21.3,27.1z M34.7,40.4v-1.3H28v-6c0-1.8-1.5-3.3-3.3-3.3H18
		c-1.8,0-3.3,1.5-3.3,3.3v6h-2c-0.4,0-0.7,0.3-0.7,0.7v16.6c0,0.4,0.3,0.7,0.7,0.7h22v-1.3H13.4V40.4H34.7z M16,33.1
		c0-1.1,0.9-2,2-2h6.7c1.1,0,2,0.9,2,2v6h-1.3v-5.3H24v5.3h-5.3v-5.3h-1.3v5.3H16V33.1z M33.3,39.1h-2.7 M51.3,39.1h-0.7v16.7H48
		v1.3h3.3c0.4,0,0.7-0.3,0.7-0.7V39.8C52,39.4,51.7,39.1,51.3,39.1z M42.7,21.8c-1.8,0-3.3,1.5-3.3,3.3s1.5,3.3,3.3,3.3
		s3.3-1.5,3.3-3.3S44.5,21.8,42.7,21.8z M42.7,27.1c-1.1,0-2-0.9-2-2s0.9-2,2-2s2,0.9,2,2S43.8,27.1,42.7,27.1z M46,29.8h-6.7
		c-1.8,0-3.3,1.5-3.3,3.3v10c0,0.4,0.3,0.7,0.7,0.7h2v10.5L37.4,56c-0.2,0.3-0.1,0.7,0.2,0.9C37.7,57,37.8,57,38,57h8
		c0.4,0,0.7-0.3,0.7-0.7V43.8h2c0.4,0,0.7-0.3,0.7-0.7v-10C49.3,31.3,47.8,29.8,46,29.8z M48,42.4h-1.3v-8.6h-1.3v22h-2V45.1H42
		v10.7h-2.8l0.6-1c0.1-0.1,0.1-0.2,0.1-0.4V33.8h-1.3v8.6h-1.3v-9.3c0-1.1,0.9-2,2-2H46c1.1,0,2,0.9,2,2V42.4z M14.7,44.4v4H16v-4
		H14.7z M14.7,41.8v1.3H16v-1.3H14.7z"/>
</g>
<path class="st3" d="M34.5,16c0.1,1.1-0.7,2-1.8,2c-1.1,0.1-2-0.7-2-1.8c0-0.1,0-0.2,0-0.3c0-0.6,0.3-1.2,0.8-1.5v-0.7
	c0-0.4,0.2-0.7,0.6-0.8c0.1-0.3,0.4-0.4,0.7-0.3c0.2,0.1,0.3,0.2,0.3,0.3c0.4,0.1,0.6,0.4,0.6,0.8v0.7C34.2,14.8,34.5,15.4,34.5,16z
	"/>
<line class="st4" x1="37.5" y1="19.9" x2="36.2" y2="18.5"/>
<line class="st4" x1="34.4" y1="21.7" x2="33.9" y2="19.9"/>
<line class="st4" x1="30.7" y1="21.7" x2="31.2" y2="19.9"/>
<line class="st4" x1="27.6" y1="19.9" x2="28.9" y2="18.5"/>
</svg>
