<?xml version="1.0" encoding="utf-8"?>
<!-- Generator: Adobe Illustrator 26.0.3, SVG Export Plug-In . SVG Version: 6.00 Build 0)  -->
<svg version="1.1" id="Layer_1" xmlns="http://www.w3.org/2000/svg" xmlns:xlink="http://www.w3.org/1999/xlink" x="0px" y="0px"
	 viewBox="0 0 64 70" style="enable-background:new 0 0 64 70;" xml:space="preserve">
<style type="text/css">
	.st0{opacity:0.8;}
	.st1{fill:none;stroke:#000000;stroke-linejoin:round;}
	.st2{fill:#FFFFFF;stroke:#000000;stroke-miterlimit:10;}
	.st3{fill:none;stroke:#000000;stroke-linecap:round;stroke-miterlimit:10;}
</style>
<g id="_03-dont_touch">
	<g class="st0">
		<path class="st1" d="M14.2,31.6l10.4,8.3l6.7-0.5h5.4c0,0-0.5,2.3-2.3,2.3c-1,0-1.9,0.3-2.7,0.9l8.1,3.6c0.5,0.5,0.5,1.3,0,1.8
			c0,0,0,0,0,0c-0.9,0.9-7.6-2.2-7.6-2.2s8.1,3.6,8.1,4.5s-1.3,1.4-1.3,1.4L31.7,48c0,0,5.3,3.6,5.3,4.5s-0.9,1.8-1.3,1.4
			s-5.4-4.5-5.4-4.5"/>
		<path class="st1" d="M14.2,43.6l8.5,3c3.1,3.7,7.1,6.6,11.6,8.4c0,0,0.7,0,2-1.3"/>
		<path class="st1" d="M54.5,14.7L44.2,23l-6.7-0.5H32c0,0,0.5,2.3,2.3,2.3c1,0,1.9,0.3,2.7,0.9l-8.1,3.6c-0.5,0.5-0.5,1.3,0,1.8
			c0,0,0,0,0,0c0.9,0.9,7.6-2.2,7.6-2.2s-8.1,3.6-8.1,4.5s1.4,1.4,1.4,1.4l7.2-3.6c0,0-5.4,3.6-5.4,4.5s0.9,1.8,1.4,1.4
			s5.4-4.5,5.4-4.5"/>
		<path class="st1" d="M54.5,26.7l-8.5,3c-3.1,3.7-7.1,6.6-11.6,8.4c0,0-0.7,0-2-1.3"/>
		<g class="st0">
			<path class="st2" d="M22.5,18.3c0,1.6-1.3,2.9-2.9,2.9c-1.6,0-2.9-1.3-2.9-2.9c0-0.9,0.5-1.8,1.3-2.3v-1c0-0.6,0.4-1.1,0.9-1.2
				c0.1-0.3,0.4-0.5,0.7-0.5c0.3,0,0.6,0.2,0.8,0.5c0.5,0.2,0.9,0.6,0.9,1.2v1C22.1,16.5,22.5,17.4,22.5,18.3z"/>
		</g>
		<line class="st3" x1="28.4" y1="12.3" x2="24.4" y2="14.7"/>
		<line class="st3" x1="29.7" y1="18.7" x2="25.1" y2="18.2"/>
		<line class="st3" x1="26.9" y1="24.6" x2="23.5" y2="21.4"/>
		<line class="st3" x1="21" y1="27.6" x2="20.4" y2="23"/>
		<line class="st3" x1="14.6" y1="26.4" x2="16.9" y2="22.4"/>
		<line class="st3" x1="10.2" y1="21.6" x2="14.5" y2="19.7"/>
		<line class="st3" x1="9.7" y1="15" x2="14.2" y2="16.2"/>
	</g>
</g>
</svg>
