<?xml version="1.0" encoding="utf-8"?>
<!-- Generator: Adobe Illustrator 26.0.3, SVG Export Plug-In . SVG Version: 6.00 Build 0)  -->
<svg version="1.1" id="Layer_1" xmlns="http://www.w3.org/2000/svg" xmlns:xlink="http://www.w3.org/1999/xlink" x="0px" y="0px"
	 viewBox="0 0 64 70" style="enable-background:new 0 0 64 70;" xml:space="preserve">
<style type="text/css">
	.st0{opacity:0.8;}
	.st1{fill:none;stroke:#000000;stroke-linecap:round;stroke-linejoin:round;}
	.st2{fill:#FFFFFF;stroke:#000000;stroke-miterlimit:10;}
	.st3{fill:none;stroke:#000000;stroke-linecap:round;stroke-miterlimit:10;}
</style>
<g id="_10-quarantine">
	<g class="st0">
		<line class="st1" x1="41.4" y1="43.6" x2="37.8" y2="43.6"/>
		<line class="st1" x1="26.6" y1="43.6" x2="22.9" y2="43.6"/>
		<polyline class="st1" points="11.8,43.6 10.8,43.6 10.8,45.9 12.2,45.9 13.8,45.9 50.5,45.9 52.1,45.9 53.5,45.9 53.5,43.6 
			52.6,43.6 		"/>
		<rect x="12.2" y="45.9" class="st1" width="1.6" height="9.2"/>
		<rect x="50.5" y="45.9" class="st1" width="1.6" height="9.2"/>
		<line class="st1" x1="21.3" y1="41.4" x2="13.4" y2="41.4"/>
		<path class="st1" d="M22.8,42.2l0.2,0.9c0.1,0.5-0.2,1-0.7,1.1c-0.1,0-0.1,0-0.2,0h-9.4c-0.5,0-0.9-0.4-0.9-0.9c0-0.1,0-0.1,0-0.2
			l0.2-0.9"/>
		<path class="st1" d="M12.1,38.4v-6.1c0-1,0.8-1.8,1.8-1.8h6.9c1,0,1.8,0.8,1.8,1.8v6.1"/>
		<line class="st1" x1="21.3" y1="41.4" x2="13.4" y2="41.4"/>
		<path class="st1" d="M12.1,38.4L12.1,38.4c0.7,0,1.3,0.6,1.3,1.3l0,0v2.5l0,0h-2.6l0,0v-2.5C10.8,39,11.3,38.4,12.1,38.4z"/>
		<path class="st1" d="M22.6,38.4L22.6,38.4c0.7,0,1.3,0.6,1.3,1.3l0,0v2.5l0,0h-2.6l0,0v-2.5C21.3,39,21.9,38.4,22.6,38.4z"/>
		<path class="st1" d="M37.6,42.2l0.2,0.9c0.1,0.5-0.2,1-0.7,1.1c-0.1,0-0.1,0-0.2,0h-9.4c-0.5,0-0.9-0.4-0.9-0.9c0-0.1,0-0.1,0-0.2
			l0.2-0.9"/>
		<line class="st1" x1="36.1" y1="41.4" x2="28.2" y2="41.4"/>
		<line class="st1" x1="36.1" y1="41.4" x2="28.2" y2="41.4"/>
		<path class="st1" d="M26.9,38.4v-6.1c0-1,0.8-1.8,1.8-1.8h6.9c1,0,1.8,0.8,1.8,1.8l0,0v6.1"/>
		<path class="st1" d="M26.9,38.4L26.9,38.4c0.7,0,1.3,0.6,1.3,1.3l0,0v2.5l0,0h-2.6l0,0v-2.5C25.6,39,26.2,38.4,26.9,38.4z"/>
		<path class="st1" d="M37.4,38.4L37.4,38.4c0.7,0,1.3,0.6,1.3,1.3c0,0,0,0,0,0v2.5l0,0h-2.6l0,0v-2.5C36.1,39,36.7,38.4,37.4,38.4z
			"/>
		<path class="st1" d="M41.6,42.2l-0.2,0.9c0,0.1,0,0.3,0,0.4c0.1,0.4,0.5,0.6,0.9,0.7h9.4c0.4,0,0.8-0.3,0.9-0.7c0-0.1,0-0.3,0-0.4
			l-0.2-0.9"/>
		<line class="st1" x1="51" y1="41.4" x2="43" y2="41.4"/>
		<line class="st1" x1="51" y1="41.4" x2="43" y2="41.4"/>
		<path class="st1" d="M41.7,38.4v-6.1c0-1,0.8-1.8,1.8-1.8l0,0h6.9c1,0,1.8,0.8,1.8,1.8c0,0,0,0,0,0v6.1"/>
		<path class="st1" d="M41.7,38.4L41.7,38.4c0.7,0,1.3,0.6,1.3,1.3v2.5l0,0h-2.6l0,0v-2.5C40.4,39,41,38.4,41.7,38.4z"/>
		<path class="st1" d="M52.3,38.4L52.3,38.4c0.7,0,1.3,0.6,1.3,1.3c0,0,0,0,0,0v2.5l0,0H51l0,0v-2.5C51,39,51.6,38.4,52.3,38.4z"/>
		<path class="st2" d="M33.9,17.3c0,1-0.8,1.9-1.9,1.9c-1,0-1.9-0.8-1.9-1.9c0,0,0,0,0,0c0-0.6,0.3-1.2,0.8-1.5v-0.7
			c0-0.4,0.2-0.7,0.6-0.8c0.1-0.3,0.4-0.4,0.7-0.3c0.1,0.1,0.2,0.2,0.3,0.3c0.4,0.1,0.6,0.4,0.6,0.8v0.7
			C33.6,16.2,33.9,16.7,33.9,17.3z"/>
		<line class="st3" x1="37" y1="21.2" x2="35.6" y2="19.9"/>
		<line class="st3" x1="33.8" y1="23" x2="33.3" y2="21.2"/>
		<line class="st3" x1="30.2" y1="23" x2="30.7" y2="21.2"/>
		<line class="st3" x1="27" y1="21.2" x2="28.4" y2="19.9"/>
		<path class="st2" d="M49.1,17.3c0.1,1.1-0.7,2-1.8,2c-1.1,0.1-2-0.7-2-1.8c0-0.1,0-0.2,0-0.3c0-0.6,0.3-1.2,0.8-1.5v-0.7
			c0-0.4,0.2-0.7,0.6-0.8c0.1-0.3,0.4-0.4,0.7-0.3c0.2,0.1,0.3,0.2,0.3,0.3c0.4,0.1,0.6,0.4,0.6,0.8v0.7
			C48.8,16.2,49.1,16.7,49.1,17.3z"/>
		<line class="st3" x1="52.2" y1="21.2" x2="50.9" y2="19.9"/>
		<line class="st3" x1="49" y1="23" x2="48.5" y2="21.2"/>
		<line class="st3" x1="45.4" y1="23" x2="45.9" y2="21.2"/>
		<line class="st3" x1="42.2" y1="21.2" x2="43.6" y2="19.9"/>
		<path class="st2" d="M18.7,17.3c0.1,1.1-0.7,2-1.8,2c-1.1,0.1-2-0.7-2-1.8c0-0.1,0-0.2,0-0.3c0-0.6,0.3-1.2,0.8-1.5v-0.7
			c0-0.4,0.2-0.7,0.6-0.8c0.1-0.3,0.4-0.4,0.7-0.3c0.2,0.1,0.3,0.2,0.3,0.3c0.4,0.1,0.6,0.4,0.6,0.8v0.7
			C18.4,16.2,18.7,16.7,18.7,17.3z"/>
		<line class="st3" x1="21.8" y1="21.2" x2="20.4" y2="19.9"/>
		<line class="st3" x1="18.6" y1="23" x2="18.1" y2="21.2"/>
		<line class="st3" x1="14.9" y1="23" x2="15.4" y2="21.2"/>
		<line class="st3" x1="11.8" y1="21.2" x2="13.1" y2="19.9"/>
	</g>
</g>
</svg>
