<svg xmlns="http://www.w3.org/2000/svg" viewBox="0 0 64 64"><g id="_23-Spread" data-name="23-Spread"><path d="M45,59H40a3,3,0,0,1-3-3V55c0-3.647,2.047-6.622,4.781-6.981l2.457-.819c.433-1.518.112-5.016-.224-7.036l1.972-.328c.176,1.055,1,6.431-.091,8.611a1,1,0,0,1-.579.5l-3,1A.965.965,0,0,1,42.1,50C40.392,50.172,39,52.417,39,55v1a1,1,0,0,0,1,1h5Z"/><rect x="56" y="34.648" width="1.999" height="11.705" transform="translate(-10.409 21.918) rotate(-19.983)"/><path d="M53,17H51c0-.562-.217-.8-.707-1.293a3.48,3.48,0,0,1,0-5.414C50.783,9.8,51,9.562,51,9s-.217-.8-.707-1.293A3.564,3.564,0,0,1,49,5h2c0,.562.217.8.707,1.293a3.48,3.48,0,0,1,0,5.414C51.217,12.2,51,12.438,51,13s.217.8.707,1.293A3.564,3.564,0,0,1,53,17Z"/><path d="M57,17H55c0-.562-.217-.8-.707-1.293a3.48,3.48,0,0,1,0-5.414C54.783,9.8,55,9.562,55,9s-.217-.8-.707-1.293A3.564,3.564,0,0,1,53,5h2c0,.562.217.8.707,1.293a3.48,3.48,0,0,1,0,5.414C55.217,12.2,55,12.438,55,13s.217.8.707,1.293A3.564,3.564,0,0,1,57,17Z"/><path d="M47,13H45a3.564,3.564,0,0,1,1.293-2.707C46.783,9.8,47,9.562,47,9s-.217-.8-.707-1.293A3.564,3.564,0,0,1,45,5h2c0,.562.217.8.707,1.293a3.48,3.48,0,0,1,0,5.414C47.217,12.2,47,12.438,47,13Z"/><path d="M54,60a6,6,0,1,1,6-6A6.006,6.006,0,0,1,54,60Zm0-10a4,4,0,1,0,4,4A4,4,0,0,0,54,50Z"/><path d="M57,63H55c0-.562-.217-.8-.707-1.293A3.564,3.564,0,0,1,53,59h2c0,.562.217.8.707,1.293A3.564,3.564,0,0,1,57,63Z"/><path d="M55,49H53a2.89,2.89,0,0,0-.4-1.553A4.868,4.868,0,0,1,52,45h2a2.89,2.89,0,0,0,.4,1.553A4.868,4.868,0,0,1,55,49Z"/><path d="M59,55V53a2.89,2.89,0,0,0,1.553-.4A4.868,4.868,0,0,1,63,52v2a2.89,2.89,0,0,0-1.553.4A4.868,4.868,0,0,1,59,55Z"/><path d="M45,57V55c.562,0,.8-.217,1.293-.707A3.564,3.564,0,0,1,49,53v2c-.563,0-.8.217-1.293.707A3.564,3.564,0,0,1,45,57Z"/><rect x="56.379" y="48.5" width="4.243" height="2" transform="translate(-17.868 55.864) rotate(-45)"/><rect x="48.5" y="47.379" width="2" height="4.243" transform="translate(-20.504 49.5) rotate(-45)"/><rect x="57.5" y="56.379" width="2" height="4.243" transform="translate(-24.231 58.5) rotate(-45)"/><rect x="47.379" y="57.5" width="4.243" height="2" transform="translate(-26.868 52.136) rotate(-45)"/><rect x="51" y="54" width="2" height="2"/><rect x="54" y="52" width="2" height="2"/><path d="M35,43a1,1,0,0,1-.971-.761l-.759-3.08a1,1,0,0,1,.654-1.187l4.811-1.605L38.279,35H32.45a1,1,0,0,1-.9-.564l-1.45-3a1,1,0,0,1,.043-.951l2.6-4.33-1.448-1.448a1,1,0,0,1-.263-.949L32.719,17H32a1,1,0,0,1-1-1V10a1,1,0,0,1,1-1H51c0,.007.337,0,.865.056a10.986,10.986,0,0,1,3.582,1.049C57.524,11.145,60,13.356,60,18V31a4.821,4.821,0,0,1-5,5,1,1,0,0,1-.707-.293l-3.39-3.39A3,3,0,0,1,49,33H47.943a33.74,33.74,0,0,1-2.014,7.371,1.01,1.01,0,0,1-.222.336C43.524,42.89,36.405,43,35,43Zm.433-3.423.348,1.413c2.874-.072,7.053-.524,8.373-1.574C44.522,38.452,46,34.438,46,32a1,1,0,0,1,1-1h2a1,1,0,0,0,.908-.591A.915.915,0,0,0,50,30V26H46a1,1,0,0,1-.707-.293l-2-2A1,1,0,0,1,43,23V20a3,3,0,0,0-3-3H34.781l-1.674,6.693,1.6,1.6a1,1,0,0,1,.15,1.222l-2.721,4.536L33.077,33H39a1,1,0,0,1,.948.684l1,3a1,1,0,0,1-.632,1.264Zm16.519-9.039L55.4,33.982A2.852,2.852,0,0,0,58,30.994V18c0-2.907-1.16-4.962-3.447-6.1a9.08,9.08,0,0,0-2.91-.852C51.268,11,51.021,11,51,11H33v4h7a5.006,5.006,0,0,1,5,5v2.586L46.414,24H50a2,2,0,0,1,2,2v4A2.974,2.974,0,0,1,51.952,30.538Z"/><path d="M17,15a3,3,0,1,1,3-3A3,3,0,0,1,17,15Zm0-4a1,1,0,1,0,1,1A1,1,0,0,0,17,11Z"/><rect x="16" y="7" width="2" height="3"/><rect x="16" y="14" width="2" height="3"/><rect x="19" y="11" width="3" height="2"/><rect x="12" y="11" width="3" height="2"/><rect x="17.975" y="8.525" width="3" height="2" transform="translate(-1.031 16.561) rotate(-45)"/><rect x="13.026" y="13.475" width="3" height="2" transform="translate(-5.981 14.511) rotate(-45)"/><rect x="18.475" y="12.975" width="2" height="3" transform="translate(-4.531 18.01) rotate(-45)"/><rect x="13.525" y="8.026" width="2" height="3" transform="translate(-2.481 13.061) rotate(-45)"/><path d="M27,55a3,3,0,1,1,3-3A3,3,0,0,1,27,55Zm0-4a1,1,0,1,0,1,1A1,1,0,0,0,27,51Z"/><rect x="26" y="47" width="2" height="3"/><rect x="26" y="54" width="2" height="3"/><rect x="29" y="51" width="3" height="2"/><rect x="22" y="51" width="3" height="2"/><rect x="27.975" y="48.525" width="3" height="2" transform="translate(-26.387 35.347) rotate(-45)"/><rect x="23.026" y="53.475" width="3" height="2" transform="translate(-31.336 33.297) rotate(-45)"/><rect x="28.475" y="52.975" width="2" height="3" transform="translate(-29.886 36.797) rotate(-45)"/><rect x="23.525" y="48.026" width="2" height="3" transform="translate(-27.836 31.848) rotate(-45)"/><path d="M6,35a3,3,0,1,1,3-3A3,3,0,0,1,6,35Zm0-4a1,1,0,1,0,1,1A1,1,0,0,0,6,31Z"/><rect x="5" y="27" width="2" height="3"/><rect x="5" y="34" width="2" height="3"/><rect x="8" y="31" width="3" height="2"/><rect x="1" y="31" width="3" height="2"/><rect x="6.975" y="28.525" width="3" height="2" transform="translate(-18.395 14.64) rotate(-45)"/><rect x="2.026" y="33.475" width="3" height="2" transform="translate(-23.345 12.59) rotate(-45)"/><rect x="7.475" y="32.975" width="2" height="3" transform="translate(-21.895 16.09) rotate(-45)"/><rect x="2.525" y="28.026" width="2" height="3" transform="translate(-19.845 11.141) rotate(-45)"/><path d="M30,36c-9.032,0-15,0-15-10h2c0,8,3.806,8,13,8Z"/><path d="M19,52H17c0-8.626,4.374-13,13-13v2C22.5,41,19,44.5,19,52Z"/><rect x="17" y="54" width="2" height="2"/><rect x="15" y="22" width="2" height="2"/><rect x="5" y="42" width="2" height="2"/><path d="M9,44V42c1.47,0,3.074-.863,4.932-1.862C16.529,38.739,19.762,37,24,37v2c-3.734,0-6.6,1.54-9.121,2.9C12.871,42.979,10.974,44,9,44Z"/><rect x="24" y="20" width="2" height="2"/><rect x="4" y="10" width="2" height="2"/><rect x="7" y="20" width="2" height="2"/><rect x="7" y="50" width="2" height="2"/></g></svg>